<svg width="70.000000" height="70.000000" viewBox="0 0 70 70" fill="none" xmlns="http://www.w3.org/2000/svg" xmlns:xlink="http://www.w3.org/1999/xlink">
	<desc>
			Created with Pixso.
	</desc>
	<defs>
		<clipPath id="clip219_229">
			<rect id="fa-solid:comments-dollar" rx="0.000000" width="69.000000" height="69.000000" transform="translate(0.500000 0.500000)" fill="white" fill-opacity="0"/>
		</clipPath>
	</defs>
	<rect id="fa-solid:comments-dollar" rx="0.000000" width="69.000000" height="69.000000" transform="translate(0.500000 0.500000)" fill="#FFFFFF" fill-opacity="0"/>
	<g clip-path="url(#clip219_229)">
		<path id="Vector" d="M50.55 26.25C50.55 14.16 39.23 4.37 25.27 4.37C11.31 4.37 0 14.16 0 26.25C0 30.93 1.71 35.26 4.61 38.82C2.99 42.95 0.3 46.23 0.26 46.27C0.13 46.43 0.04 46.62 0.01 46.83C-0.02 47.05 0 47.26 0.07 47.46C0.15 47.65 0.27 47.82 0.43 47.94C0.59 48.06 0.78 48.12 0.97 48.12C5.41 48.12 9.1 46.45 11.75 44.7C15.66 46.86 20.29 48.12 25.27 48.12C39.23 48.12 50.55 38.33 50.55 26.25ZM23.33 39.37L23.33 37.14C21.96 37.06 20.62 36.52 19.52 35.59C19.04 35.19 19.02 34.39 19.45 33.93L20.87 32.4C21.21 32.04 21.71 32.02 22.11 32.3C22.58 32.63 23.11 32.81 23.66 32.81L27.08 32.81C27.87 32.81 28.51 32 28.51 31C28.51 30.19 28.08 29.47 27.45 29.26L21.98 27.42C19.72 26.66 18.14 24.22 18.14 21.49C18.14 18.13 20.46 15.41 23.33 15.32L23.33 13.12C23.33 12.52 23.76 12.03 24.3 12.03L26.24 12.03C26.78 12.03 27.22 12.52 27.22 13.12L27.22 15.35C28.59 15.43 29.92 15.96 31.03 16.9C31.5 17.3 31.53 18.1 31.1 18.56L29.67 20.09C29.33 20.45 28.83 20.47 28.44 20.19C27.97 19.86 27.43 19.68 26.88 19.68L23.46 19.68C22.67 19.68 22.03 20.49 22.03 21.49C22.03 22.3 22.47 23.02 23.1 23.23L28.57 25.07C30.82 25.83 32.4 28.27 32.4 31C32.4 34.36 30.09 37.08 27.22 37.17L27.22 39.37C27.22 39.97 26.78 40.46 26.25 40.46L24.3 40.46C23.76 40.46 23.33 39.97 23.33 39.37ZM65.38 56.32C68.28 52.76 70 48.43 70 43.75C70 34.59 63.49 26.76 54.28 23.5C54.38 24.4 54.44 25.32 54.44 26.25C54.44 40.72 41.36 52.5 25.27 52.5C23.96 52.5 22.68 52.39 21.42 52.24C25.25 60.1 34.24 65.62 44.72 65.62C49.7 65.62 54.33 64.36 58.24 62.2C60.89 63.95 64.58 65.62 69.02 65.62C69.41 65.62 69.76 65.36 69.91 64.96C70.07 64.56 70 64.09 69.73 63.77C69.69 63.73 67 60.46 65.38 56.32Z" fill="#FFFFFF" fill-opacity="1.000000" fill-rule="nonzero"/>
	</g>
</svg>
