<svg width="70.000000" height="70.000000" viewBox="0 0 70 70" fill="none" xmlns="http://www.w3.org/2000/svg" xmlns:xlink="http://www.w3.org/1999/xlink">
	<desc>
			Created with Pixso.
	</desc>
	<defs>
		<clipPath id="clip219_234">
			<rect id="icon-park-outline:people-safe" rx="0.000000" width="69.000000" height="69.000000" transform="translate(0.500000 0.500000)" fill="white" fill-opacity="0"/>
		</clipPath>
	</defs>
	<rect id="icon-park-outline:people-safe" rx="0.000000" width="69.000000" height="69.000000" transform="translate(0.500000 0.500000)" fill="#FFFFFF" fill-opacity="0"/>
	<g clip-path="url(#clip219_234)">
		<path id="Vector" d="M35.01 5.83L61.25 13.49L61.25 29.21C61.25 45.73 50.67 58.94 35 64.16C19.32 58.94 8.75 45.73 8.75 29.2L8.75 13.49L35.01 5.83Z" stroke="#FFFFFF" stroke-opacity="1.000000" stroke-width="4.000000" stroke-linejoin="round"/>
		<path id="Vector" d="M49.37 28.14C49.35 27.97 49.31 27.8 49.23 27.65C49.15 27.5 49.04 27.37 48.91 27.26C48.79 27.16 48.64 27.08 48.48 27.04C48.32 26.99 48.15 26.98 47.99 27.01C45.37 27.44 39.25 29.93 35 29.93C30.74 29.93 24.62 27.44 22 27.01C21.84 26.98 21.67 26.99 21.51 27.04C21.35 27.08 21.2 27.16 21.08 27.26C20.95 27.37 20.84 27.5 20.76 27.65C20.68 27.8 20.64 27.97 20.62 28.14C20.41 30.51 20 36.81 20 37.77C20 39.05 25.2 42 29 42C32.67 42 33.42 37.77 35 37.77C36.57 37.77 37.32 42 41 42C44.79 42 50 39.05 50 37.77C50 36.81 49.58 30.51 49.37 28.14ZM31.49 35.69C30.96 36.18 29.48 37.34 27.69 36.98C25.89 36.61 24.81 34.93 24.44 34.26C24.4 34.18 24.38 34.09 24.39 34C24.4 33.91 24.44 33.83 24.51 33.77C25.04 33.28 26.51 32.11 28.3 32.48C30.1 32.84 31.18 34.52 31.55 35.2C31.6 35.27 31.61 35.36 31.6 35.45C31.59 35.54 31.55 35.62 31.49 35.69ZM45.55 34.26C45.18 34.93 44.1 36.61 42.3 36.98C40.51 37.34 39.03 36.18 38.5 35.69C38.44 35.62 38.4 35.54 38.39 35.45C38.38 35.36 38.39 35.27 38.44 35.2C38.81 34.52 39.89 32.84 41.69 32.48C43.48 32.11 44.96 33.28 45.48 33.77C45.55 33.83 45.59 33.91 45.6 34C45.61 34.09 45.59 34.18 45.55 34.26Z" fill="#FFFFFF" fill-opacity="1.000000" fill-rule="nonzero"/>
	</g>
</svg>
