<svg width="70.000000" height="70.000000" viewBox="0 0 70 70" fill="none" xmlns="http://www.w3.org/2000/svg" xmlns:xlink="http://www.w3.org/1999/xlink">
	<desc>
			Created with Pixso.
	</desc>
	<defs>
		<clipPath id="clip219_216">
			<rect id="ri:team-fill" rx="0.000000" width="69.000000" height="69.000000" transform="translate(0.500000 0.500000)" fill="white" fill-opacity="0"/>
		</clipPath>
	</defs>
	<rect id="ri:team-fill" rx="0.000000" width="69.000000" height="69.000000" transform="translate(0.500000 0.500000)" fill="#FFFFFF" fill-opacity="0"/>
	<g clip-path="url(#clip219_216)">
		<path id="Vector" d="M35 32.08C38.86 32.08 42.57 33.61 45.31 36.35C48.04 39.08 49.58 42.79 49.58 46.66L49.58 64.16L20.41 64.16L20.41 46.66C20.41 42.79 21.95 39.08 24.68 36.35C27.42 33.61 31.13 32.08 35 32.08ZM15.42 40.85C14.95 42.41 14.68 44.03 14.6 45.66L14.58 46.66L14.58 64.16L5.83 64.16L5.83 51.04C5.83 48.52 6.76 46.09 8.43 44.22C10.11 42.35 12.42 41.16 14.93 40.89L15.42 40.85L15.42 40.85ZM54.57 40.85C57.17 41 59.6 42.15 61.39 44.04C63.17 45.93 64.16 48.44 64.16 51.04L64.16 64.16L55.41 64.16L55.41 46.66C55.41 44.64 55.12 42.69 54.57 40.85ZM16.04 23.33C17.97 23.33 19.83 24.1 21.19 25.46C22.56 26.83 23.33 28.69 23.33 30.62C23.33 32.55 22.56 34.41 21.19 35.78C19.83 37.14 17.97 37.91 16.04 37.91C14.1 37.91 12.25 37.14 10.88 35.78C9.51 34.41 8.75 32.55 8.75 30.62C8.75 28.69 9.51 26.83 10.88 25.46C12.25 24.1 14.1 23.33 16.04 23.33ZM53.95 23.33C55.89 23.33 57.74 24.1 59.11 25.46C60.48 26.83 61.25 28.69 61.25 30.62C61.25 32.55 60.48 34.41 59.11 35.78C57.74 37.14 55.89 37.91 53.95 37.91C52.02 37.91 50.16 37.14 48.8 35.78C47.43 34.41 46.66 32.55 46.66 30.62C46.66 28.69 47.43 26.83 48.8 25.46C50.16 24.1 52.02 23.33 53.95 23.33ZM35 5.83C38.09 5.83 41.06 7.06 43.24 9.25C45.43 11.43 46.66 14.4 46.66 17.5C46.66 20.59 45.43 23.56 43.24 25.74C41.06 27.93 38.09 29.16 35 29.16C31.9 29.16 28.93 27.93 26.75 25.74C24.56 23.56 23.33 20.59 23.33 17.5C23.33 14.4 24.56 11.43 26.75 9.25C28.93 7.06 31.9 5.83 35 5.83Z" fill="#FFFFFF" fill-opacity="1.000000" fill-rule="nonzero"/>
	</g>
</svg>
