<svg width="70.000000" height="70.000000" viewBox="0 0 70 70" fill="none" xmlns="http://www.w3.org/2000/svg" xmlns:xlink="http://www.w3.org/1999/xlink">
	<desc>
			Created with Pixso.
	</desc>
	<defs>
		<clipPath id="clip219_221">
			<rect id="clarity:employee-solid" rx="0.000000" width="69.000000" height="69.000000" transform="translate(0.500000 0.500000)" fill="white" fill-opacity="0"/>
		</clipPath>
	</defs>
	<rect id="clarity:employee-solid" rx="0.000000" width="69.000000" height="69.000000" transform="translate(0.500000 0.500000)" fill="#FFFFFF" fill-opacity="0"/>
	<g clip-path="url(#clip219_221)">
		<path id="Vector" d="M45.34 18.91C45.34 25.85 39.72 31.48 32.78 31.48C25.84 31.48 20.22 25.85 20.22 18.91C20.22 11.98 25.84 6.35 32.78 6.35C39.72 6.35 45.34 11.98 45.34 18.91Z" fill="#FFFFFF" fill-opacity="1.000000" fill-rule="evenodd"/>
		<path id="Vector" d="M40.83 54.44L54.44 54.44L54.44 57.16L40.83 57.16L40.83 54.44Z" fill="#FFFFFF" fill-opacity="1.000000" fill-rule="nonzero"/>
		<path id="Vector" d="M29.16 58.33L29.16 64.16C29.16 64.68 29.37 65.17 29.73 65.54C30.1 65.9 30.59 66.11 31.11 66.11L64.16 66.11C64.68 66.11 65.17 65.9 65.54 65.54C65.9 65.17 66.11 64.68 66.11 64.16L66.11 44.72C66.11 44.2 65.9 43.71 65.54 43.34C65.17 42.98 64.68 42.77 64.16 42.77L50.55 42.77L50.55 39.91C50.55 39.4 50.35 38.9 49.98 38.54C49.62 38.17 49.12 37.97 48.61 37.97C48.09 37.97 47.6 38.17 47.23 38.54C46.87 38.9 46.66 39.4 46.66 39.91L46.66 42.77L42.77 42.77L42.77 35.81C39.47 35.27 36.13 35 32.78 35C25.39 34.96 18.09 36.55 11.39 39.64C10.29 40.16 9.35 40.99 8.71 42.02C8.06 43.06 7.72 44.26 7.73 45.48L7.73 58.33L29.16 58.33ZM62.22 62.22L33.05 62.22L33.05 46.66L46.66 46.66L46.66 47.48C46.66 47.99 46.87 48.49 47.23 48.85C47.6 49.22 48.09 49.42 48.61 49.42C49.12 49.42 49.62 49.22 49.98 48.85C50.35 48.49 50.55 47.99 50.55 47.48L50.55 46.66L62.22 46.66L62.22 62.22Z" fill="#FFFFFF" fill-opacity="1.000000" fill-rule="nonzero"/>
	</g>
</svg>
