<svg width="70.000000" height="70.000000" viewBox="0 0 70 70" fill="none" xmlns="http://www.w3.org/2000/svg" xmlns:xlink="http://www.w3.org/1999/xlink">
	<desc>
			Created with Pixso.
	</desc>
	<defs>
		<clipPath id="clip219_211">
			<rect id="bx:bx-support" rx="0.000000" width="69.000000" height="69.000000" transform="translate(0.500000 0.500000)" fill="white" fill-opacity="0"/>
		</clipPath>
	</defs>
	<rect id="bx:bx-support" rx="0.000000" width="69.000000" height="69.000000" transform="translate(0.500000 0.500000)" fill="#FFFFFF" fill-opacity="0"/>
	<g clip-path="url(#clip219_211)">
		<path id="Vector" d="M35 5.83C18.91 5.83 5.83 18.91 5.83 35L5.83 47.08C5.83 50.07 8.44 52.5 11.66 52.5L14.58 52.5C15.35 52.5 16.09 52.19 16.64 51.64C17.19 51.09 17.5 50.35 17.5 49.58L17.5 34.58C17.5 33.8 17.19 33.06 16.64 32.52C16.09 31.97 15.35 31.66 14.58 31.66L11.93 31.66C13.55 20.37 23.26 11.66 35 11.66C46.73 11.66 56.44 20.37 58.06 31.66L55.41 31.66C54.64 31.66 53.9 31.97 53.35 32.52C52.8 33.06 52.5 33.8 52.5 34.58L52.5 52.5C52.5 55.71 49.88 58.33 46.66 58.33L40.83 58.33L40.83 55.41L29.16 55.41L29.16 64.16L46.66 64.16C53.1 64.16 58.33 58.93 58.33 52.5C61.55 52.5 64.16 50.07 64.16 47.08L64.16 35C64.16 18.91 51.08 5.83 35 5.83Z" fill="#FFFFFF" fill-opacity="1.000000" fill-rule="nonzero"/>
	</g>
</svg>
