<svg width="120.000000" height="120.000000" viewBox="0 0 120 120" fill="none" xmlns="http://www.w3.org/2000/svg" xmlns:xlink="http://www.w3.org/1999/xlink">
	<desc>
			Created with Pixso.
	</desc>
	<defs>
		<clipPath id="clip219_151">
			<rect id="ion:rocket-sharp" rx="0.000000" width="119.000000" height="119.000000" transform="translate(0.500000 0.500000)" fill="white" fill-opacity="0"/>
		</clipPath>
	</defs>
	<rect id="ion:rocket-sharp" rx="0.000000" width="119.000000" height="119.000000" transform="translate(0.500000 0.500000)" fill="#FFFFFF" fill-opacity="0"/>
	<g clip-path="url(#clip219_151)">
		<path id="Vector" d="M111.94 8.96C111.9 8.76 111.8 8.56 111.65 8.41C111.5 8.26 111.32 8.15 111.11 8.1C97.38 4.75 65.66 16.71 48.48 33.89C45.42 36.93 42.62 40.23 40.13 43.75C34.83 43.28 29.53 43.68 25.01 45.64C12.27 51.25 8.56 65.89 7.53 72.18C7.47 72.53 7.49 72.88 7.59 73.22C7.69 73.55 7.87 73.86 8.11 74.11C8.35 74.37 8.65 74.56 8.97 74.68C9.3 74.8 9.65 74.85 10 74.81L30.46 72.55C30.48 74.09 30.57 75.63 30.74 77.17C30.85 78.23 31.32 79.23 32.08 79.98L40 87.89C40.76 88.65 41.75 89.12 42.82 89.22C44.34 89.39 45.87 89.49 47.41 89.5L45.16 109.94C45.12 110.29 45.17 110.64 45.29 110.96C45.41 111.29 45.6 111.59 45.86 111.83C46.11 112.07 46.42 112.24 46.75 112.35C47.09 112.45 47.44 112.47 47.79 112.41C54.07 111.4 68.73 107.69 74.31 94.95C76.27 90.43 76.68 85.16 76.22 79.89C79.76 77.39 83.07 74.6 86.12 71.53C103.35 54.38 115.25 23.37 111.94 8.96ZM68.92 51.07C67.34 49.5 66.27 47.49 65.84 45.31C65.4 43.13 65.62 40.87 66.48 38.81C67.33 36.76 68.77 35 70.62 33.76C72.47 32.52 74.64 31.86 76.87 31.86C79.1 31.86 81.27 32.52 83.12 33.76C84.97 35 86.41 36.76 87.26 38.81C88.12 40.87 88.34 43.13 87.9 45.31C87.47 47.49 86.4 49.5 84.82 51.07C83.78 52.12 82.54 52.95 81.17 53.51C79.81 54.08 78.35 54.37 76.87 54.37C75.39 54.37 73.93 54.08 72.57 53.51C71.2 52.95 69.96 52.12 68.92 51.07Z" fill="#FE9E45" fill-opacity="1.000000" fill-rule="nonzero"/>
		<path id="Vector" d="M39.46 93.61C38.18 94.9 36.12 95.4 33.64 95.83C28.07 96.78 23.15 91.96 24.15 86.33C24.53 84.2 25.66 81.2 26.36 80.5C26.52 80.35 26.62 80.15 26.66 79.94C26.69 79.73 26.66 79.51 26.57 79.32C26.47 79.13 26.32 78.97 26.13 78.87C25.94 78.76 25.72 78.73 25.51 78.75C22.39 79.14 19.5 80.55 17.28 82.77C11.77 88.28 11.25 108.75 11.25 108.75C11.25 108.75 31.72 108.23 37.23 102.71C39.46 100.49 40.87 97.59 41.25 94.47C41.33 93.49 40.14 92.91 39.46 93.61Z" fill="#FE9E45" fill-opacity="1.000000" fill-rule="nonzero"/>
	</g>
</svg>
