<svg width="120.000000" height="120.000000" viewBox="0 0 120 120" fill="none" xmlns="http://www.w3.org/2000/svg" xmlns:xlink="http://www.w3.org/1999/xlink">
	<desc>
			Created with Pixso.
	</desc>
	<defs>
		<clipPath id="clip219_170">
			<rect id="healthicons:money-bag" rx="0.000000" width="119.000000" height="119.000000" transform="translate(0.500000 0.500000)" fill="white" fill-opacity="0"/>
		</clipPath>
	</defs>
	<rect id="healthicons:money-bag" rx="0.000000" width="119.000000" height="119.000000" transform="translate(0.500000 0.500000)" fill="#FFFFFF" fill-opacity="0"/>
	<g clip-path="url(#clip219_170)">
		<path id="Vector" d="M60.09 15C48.8 15 38.51 18.73 32.42 21.77C31.87 22.05 31.36 22.32 30.88 22.58C29.94 23.09 29.13 23.57 28.5 24L35.42 34.19L38.68 35.49C51.42 41.92 68.51 41.92 81.25 35.49L84.95 33.57L91.5 24C90.14 23.11 88.73 22.31 87.27 21.6C81.22 18.59 71.17 15 60.09 15L60.09 15ZM43.99 26.54C41.54 26.08 39.11 25.47 36.74 24.72C42.44 22.18 50.93 19.5 60.09 19.5C66.43 19.5 72.43 20.79 77.39 22.42C71.58 23.24 65.38 24.63 59.47 26.33C54.82 27.68 49.38 27.53 43.99 26.54ZM83.89 39.2L83.27 39.5C69.26 46.58 50.67 46.58 36.65 39.5L36.07 39.21C15.02 62.31 -1.06 104.99 60.09 104.99C121.25 104.99 104.78 61.52 83.89 39.2ZM57.5 60C56.17 60 54.9 60.52 53.96 61.46C53.02 62.4 52.5 63.67 52.5 65C52.5 66.32 53.02 67.59 53.96 68.53C54.9 69.47 56.17 70 57.5 70L57.5 60ZM62.5 55L62.5 52.5L57.5 52.5L57.5 55C54.84 55 52.3 56.05 50.42 57.92C48.55 59.8 47.5 62.34 47.5 65C47.5 67.65 48.55 70.19 50.42 72.07C52.3 73.94 54.84 75 57.5 75L57.5 85C55.32 85 53.47 83.61 52.78 81.66C52.68 81.34 52.51 81.05 52.29 80.8C52.07 80.54 51.81 80.34 51.51 80.19C51.21 80.04 50.88 79.95 50.55 79.93C50.21 79.91 49.88 79.96 49.56 80.07C49.25 80.18 48.96 80.36 48.71 80.58C48.47 80.81 48.27 81.08 48.13 81.38C47.99 81.69 47.91 82.01 47.9 82.35C47.89 82.68 47.94 83.02 48.07 83.33C48.75 85.28 50.03 86.97 51.72 88.16C53.41 89.35 55.43 90 57.5 90L57.5 92.5L62.5 92.5L62.5 90C65.15 90 67.69 88.94 69.57 87.07C71.44 85.19 72.5 82.65 72.5 80C72.5 77.34 71.44 74.8 69.57 72.92C67.69 71.05 65.15 70 62.5 70L62.5 60C64.67 60 66.52 61.38 67.21 63.33C67.31 63.65 67.48 63.94 67.7 64.19C67.92 64.45 68.18 64.65 68.48 64.8C68.78 64.95 69.11 65.04 69.44 65.06C69.78 65.08 70.11 65.03 70.43 64.92C70.74 64.81 71.03 64.63 71.28 64.41C71.52 64.18 71.72 63.91 71.86 63.61C72 63.3 72.08 62.98 72.09 62.64C72.1 62.31 72.05 61.97 71.92 61.66C71.24 59.71 69.96 58.02 68.27 56.83C66.58 55.64 64.56 55 62.5 55ZM62.5 75L62.5 85C63.82 85 65.09 84.47 66.03 83.53C66.97 82.59 67.5 81.32 67.5 80C67.5 78.67 66.97 77.4 66.03 76.46C65.09 75.52 63.82 75 62.5 75Z" fill="#FE9E45" fill-opacity="1.000000" fill-rule="evenodd"/>
	</g>
</svg>
