<svg width="120.000000" height="120.000000" viewBox="0 0 120 120" fill="none" xmlns="http://www.w3.org/2000/svg" xmlns:xlink="http://www.w3.org/1999/xlink">
	<desc>
			Created with Pixso.
	</desc>
	<defs>
		<clipPath id="clip219_188">
			<rect id="carbon:fingerprint-recognition" rx="0.000000" width="119.000000" height="119.000000" transform="translate(0.500000 0.500000)" fill="white" fill-opacity="0"/>
		</clipPath>
	</defs>
	<rect id="carbon:fingerprint-recognition" rx="0.000000" width="119.000000" height="119.000000" transform="translate(0.500000 0.500000)" fill="#FFFFFF" fill-opacity="0"/>
	<g clip-path="url(#clip219_188)">
		<path id="Vector" d="M26.25 19.53C25.65 19.52 25.06 19.33 24.58 18.98C24.09 18.62 23.73 18.13 23.54 17.56C23.35 16.99 23.35 16.38 23.52 15.8C23.7 15.23 24.05 14.72 24.52 14.36C34.87 7.04 47.33 3.31 60 3.74C69.97 3.74 84.3 5.43 95.62 13.57C96.24 14.01 96.66 14.69 96.78 15.44C96.91 16.19 96.74 16.96 96.3 17.58C95.84 18.2 95.16 18.61 94.4 18.73C93.64 18.85 92.87 18.67 92.25 18.22C82.63 12.11 71.38 9.06 60 9.48C48.63 9.1 37.44 12.41 28.12 18.93C27.59 19.35 26.92 19.57 26.25 19.53Z" fill="#FE9E45" fill-opacity="1.000000" fill-rule="nonzero"/>
		<path id="Vector" d="M105.86 45.97C105.39 45.97 104.94 45.85 104.53 45.64C104.12 45.42 103.76 45.11 103.5 44.73C97.01 35.58 85.42 23.39 59.99 23.39C51.54 23.18 43.16 25.01 35.57 28.74C27.98 32.46 21.39 37.96 16.38 44.77C15.93 45.38 15.26 45.79 14.51 45.91C13.76 46.03 12.99 45.85 12.37 45.41C12.05 45.18 11.77 44.89 11.57 44.55C11.36 44.22 11.23 43.84 11.17 43.45C11.12 43.06 11.15 42.66 11.26 42.28C11.37 41.9 11.55 41.55 11.81 41.24C17.36 33.74 24.64 27.68 33.03 23.58C41.41 19.47 50.66 17.44 59.99 17.66C81.03 17.66 96.78 25.46 108.15 41.43C108.58 42.06 108.75 42.83 108.62 43.59C108.48 44.34 108.06 45.01 107.43 45.44C106.97 45.77 106.42 45.95 105.86 45.97Z" fill="#FE9E45" fill-opacity="1.000000" fill-rule="nonzero"/>
		<path id="Vector" d="M46.04 116.25C45.46 116.24 44.9 116.07 44.41 115.74C43.93 115.41 43.56 114.95 43.34 114.41C43.2 114.05 43.12 113.67 43.12 113.29C43.12 112.91 43.21 112.53 43.36 112.18C43.51 111.83 43.74 111.51 44.02 111.25C44.3 110.99 44.63 110.79 44.99 110.66C61.38 104.36 71.24 91.46 71.24 76.12C71.36 74.61 71.14 73.1 70.62 71.69C70.09 70.27 69.27 68.98 68.2 67.92C67.13 66.85 65.84 66.02 64.43 65.5C63.01 64.97 61.5 64.76 59.99 64.87C53.02 64.87 49.64 68.62 48.74 77.43C48.33 81.55 46.33 85.35 43.17 88.03C40 90.71 35.93 92.06 31.79 91.8C29.57 91.83 27.37 91.4 25.32 90.53C23.27 89.66 21.43 88.38 19.9 86.76C18.38 85.14 17.21 83.22 16.47 81.12C15.72 79.03 15.43 76.8 15.59 74.58C15.8 62.99 20.59 51.95 28.91 43.87C37.22 35.79 48.4 31.33 59.99 31.46C71.88 31.46 83.29 36.16 91.72 44.54C100.15 52.93 104.93 64.31 105 76.19C104.73 84.57 102.97 92.82 99.78 100.57C99.48 101.26 98.92 101.81 98.22 102.09C97.52 102.38 96.74 102.39 96.03 102.11C95.68 101.96 95.37 101.75 95.1 101.49C94.83 101.22 94.62 100.9 94.48 100.55C94.34 100.21 94.27 99.83 94.27 99.45C94.27 99.08 94.35 98.7 94.49 98.36C97.37 91.31 98.99 83.81 99.26 76.19C99.21 65.82 95.05 55.89 87.69 48.58C80.33 41.27 70.37 37.18 59.99 37.2C54.98 37.1 49.99 37.99 45.31 39.82C40.64 41.65 36.37 44.39 32.75 47.87C29.14 51.35 26.24 55.52 24.24 60.12C22.23 64.72 21.16 69.68 21.07 74.69C20.92 76.15 21.07 77.63 21.53 79.02C21.99 80.42 22.74 81.7 23.72 82.78C24.71 83.87 25.92 84.73 27.27 85.31C28.61 85.9 30.07 86.19 31.53 86.17C32.88 86.3 34.25 86.17 35.54 85.77C36.84 85.38 38.05 84.73 39.1 83.86C40.14 83 41.01 81.94 41.64 80.74C42.27 79.54 42.66 78.22 42.78 76.87C44.13 65.21 49.87 59.28 59.88 59.28C62.15 59.17 64.42 59.53 66.54 60.35C68.66 61.17 70.58 62.43 72.18 64.05C73.78 65.66 75.02 67.59 75.82 69.72C76.62 71.84 76.97 74.11 76.83 76.38C76.83 94.16 65.58 109.08 46.83 116.25C46.57 116.28 46.31 116.28 46.04 116.25Z" fill="#FE9E45" fill-opacity="1.000000" fill-rule="nonzero"/>
		<path id="Vector" d="M74.13 113.55C73.41 113.53 72.72 113.27 72.18 112.8C71.91 112.53 71.7 112.22 71.56 111.87C71.41 111.52 71.34 111.15 71.34 110.77C71.34 110.39 71.41 110.02 71.56 109.67C71.7 109.33 71.91 109.01 72.18 108.75C80.62 100 85.37 88.35 85.46 76.2C85.46 70.35 83.66 51.26 60.33 51.26C56.93 51.14 53.55 51.7 50.36 52.9C47.18 54.1 44.27 55.93 41.81 58.27C39.6 60.45 37.85 63.06 36.67 65.93C35.5 68.81 34.91 71.89 34.94 75C34.93 75.75 34.63 76.48 34.09 77.01C33.55 77.55 32.82 77.85 32.06 77.85C31.68 77.85 31.31 77.78 30.96 77.64C30.6 77.5 30.29 77.29 30.02 77.02C29.75 76.76 29.54 76.44 29.39 76.09C29.24 75.75 29.17 75.37 29.17 75C29.11 71.15 29.82 67.34 31.25 63.77C32.68 60.21 34.8 56.96 37.49 54.22C40.48 51.35 44.01 49.11 47.87 47.61C51.73 46.12 55.86 45.41 59.99 45.52C82.79 45.52 90.89 62.02 90.89 76.2C90.85 89.72 85.61 102.71 76.27 112.5C76.01 112.82 75.69 113.08 75.32 113.26C74.95 113.44 74.54 113.54 74.13 113.55Z" fill="#FE9E45" fill-opacity="1.000000" fill-rule="nonzero"/>
		<path id="Vector" d="M32.47 104.02C30.52 104.02 28.56 103.9 26.62 103.68C26.24 103.65 25.87 103.54 25.53 103.36C25.19 103.18 24.89 102.94 24.65 102.64C24.4 102.35 24.22 102.01 24.11 101.64C24 101.27 23.97 100.89 24.01 100.51C24.06 100.13 24.17 99.76 24.36 99.42C24.55 99.09 24.8 98.79 25.1 98.56C25.41 98.32 25.75 98.15 26.12 98.05C26.49 97.95 26.88 97.93 27.26 97.98C36.6 99.03 43.95 97.38 49.16 93.03C51.56 90.88 53.5 88.27 54.87 85.35C56.24 82.43 57 79.27 57.11 76.05C57.13 75.67 57.22 75.29 57.39 74.95C57.55 74.61 57.79 74.31 58.08 74.06C58.36 73.81 58.7 73.62 59.06 73.5C59.42 73.39 59.8 73.35 60.18 73.38C60.94 73.44 61.64 73.79 62.15 74.36C62.65 74.92 62.91 75.66 62.88 76.42C62.72 80.43 61.75 84.37 60.02 87.99C58.3 91.61 55.85 94.85 52.83 97.5C47.04 102.04 39.82 104.35 32.47 104.02Z" fill="#FE9E45" fill-opacity="1.000000" fill-rule="nonzero"/>
	</g>
</svg>
