<svg width="100.000000" height="100.000000" viewBox="0 0 100 100" fill="none" xmlns="http://www.w3.org/2000/svg" xmlns:xlink="http://www.w3.org/1999/xlink">
	<desc>
			Created with Pixso.
	</desc>
	<defs/>
	<path id="Vector" d="M90.72 78.9L70.21 61.62C71.71 58.43 72.15 55.06 71.53 51.51C70.91 47.96 69.33 44.88 66.79 42.28L56.73 32.42C54.72 30.4 52.63 28.77 50.48 27.53C48.33 26.3 46.67 25.58 45.5 25.39L43.75 25C43.75 25.26 43.81 25.63 43.94 26.12C44.07 26.61 44.67 27.66 45.75 29.29C46.82 30.92 48.24 32.61 50 34.37L60.35 47.26C60.87 47.59 61.08 48.4 60.98 49.7C60.88 51 60.35 52.14 59.37 53.12L46.87 40.62C45.37 39.12 43.58 37.85 41.5 36.81C39.42 35.77 37.72 35.12 36.42 34.86L34.37 34.37C34.44 34.89 34.57 35.61 34.76 36.52C34.96 37.43 35.59 38.99 36.66 41.21C37.74 43.42 39.06 45.31 40.62 46.87L53.12 59.37C52.08 60.41 50.96 61 49.75 61.13C48.55 61.26 47.72 61 47.26 60.35L34.37 50C32.48 48.11 30.76 46.64 29.19 45.6C27.63 44.56 26.56 44.01 25.97 43.94L25 43.75C25.06 44.2 25.19 44.85 25.39 45.7C25.58 46.54 26.3 48.11 27.53 50.39C28.77 52.66 30.4 54.78 32.42 56.73L42.38 66.69C44.92 69.3 47.96 70.91 51.51 71.53C55.06 72.15 58.39 71.71 61.52 70.21L79 90.72C70.28 96.9 60.61 100 50 100C43.22 100 36.75 98.68 30.56 96.04C24.38 93.4 19.05 89.86 14.59 85.4C10.13 80.94 6.59 75.61 3.95 69.43C1.31 63.24 0 56.77 0 50C0 43.22 1.31 36.75 3.95 30.56C6.59 24.38 10.13 19.05 14.59 14.59C19.05 10.14 24.38 6.59 30.56 3.95C36.75 1.31 43.22 0 50 0C56.77 0 63.24 1.31 69.43 3.95C75.61 6.59 80.94 10.14 85.4 14.59C89.86 19.05 93.4 24.38 96.04 30.56C98.68 36.75 100 43.22 100 50C100 60.61 96.9 70.24 90.72 78.9Z" fill="#FE9E45" fill-opacity="1.000000" fill-rule="nonzero"/>
</svg>
