<svg width="120.000000" height="120.000000" viewBox="0 0 120 120" fill="none" xmlns="http://www.w3.org/2000/svg" xmlns:xlink="http://www.w3.org/1999/xlink">
	<desc>
			Created with Pixso.
	</desc>
	<defs>
		<clipPath id="clip219_164">
			<rect id="whh:gearsalt" rx="0.000000" width="119.000000" height="119.000000" transform="translate(0.500000 0.500000)" fill="white" fill-opacity="0"/>
		</clipPath>
	</defs>
	<rect id="whh:gearsalt" rx="0.000000" width="119.000000" height="119.000000" transform="translate(0.500000 0.500000)" fill="#FFFFFF" fill-opacity="0"/>
	<g clip-path="url(#clip219_164)">
		<path id="Vector" d="M119.65 75.04C119.81 76.44 119.89 77.69 119.89 78.79C119.89 79.88 119.81 81.13 119.65 82.53L112.16 82.53C111.93 84.4 111.57 86.28 111.11 88.15L118.01 91.08C117.31 93.34 116.37 95.64 115.2 97.99L108.18 95.06C107.32 96.7 106.27 98.3 105.02 99.86L110.29 105.13C108.73 107.08 106.97 108.83 105.02 110.4L99.75 105.13C98.19 106.38 96.59 107.43 94.95 108.29L97.88 115.2C95.54 116.44 93.23 117.42 90.97 118.12L88.04 111.21C86.17 111.68 84.3 112.03 82.42 112.27L82.42 119.76C81.02 119.92 79.77 120 78.68 120C77.58 120 76.34 119.92 74.93 119.76L74.93 112.27C73.06 112.03 71.18 111.68 69.31 111.21L66.5 118.12C64.16 117.42 61.82 116.44 59.48 115.2L62.4 108.29C60.76 107.43 59.2 106.38 57.72 105.13L52.34 110.4C50.38 108.83 48.63 107.08 47.07 105.13L52.34 99.86C51.16 98.3 50.11 96.7 49.17 95.06L42.27 97.99C41.02 95.64 40.04 93.34 39.34 91.08L46.36 88.15C45.82 86.28 45.43 84.4 45.19 82.53L37.7 82.53C37.55 81.13 37.47 79.88 37.47 78.79C37.47 77.69 37.55 76.44 37.7 75.04L45.19 75.04C45.43 73.17 45.82 71.29 46.36 69.42L39.34 66.49C40.04 64.23 41.02 61.93 42.27 59.59L49.17 62.51C50.11 60.87 51.16 59.27 52.34 57.71L47.07 52.44C48.63 50.49 50.38 48.74 52.34 47.18L57.72 52.44C59.2 51.2 60.76 50.14 62.4 49.28L59.48 42.26C61.82 41.09 64.16 40.15 66.5 39.45L69.31 46.36C71.18 45.81 73.06 45.46 74.93 45.3L74.93 37.81C76.34 37.65 77.58 37.58 78.68 37.58C79.77 37.58 81.02 37.65 82.42 37.81L82.42 45.3C84.3 45.46 86.17 45.81 88.04 46.36L90.97 39.45C93.23 40.15 95.54 41.09 97.88 42.26L94.95 49.28C96.59 50.22 98.19 51.27 99.75 52.44L105.02 47.18C106.97 48.74 108.73 50.49 110.29 52.44L105.02 57.71C106.27 59.27 107.32 60.87 108.18 62.51L115.2 59.59C116.37 61.93 117.31 64.23 118.01 66.49L111.11 69.42C111.57 71.29 111.93 73.17 112.16 75.04L119.65 75.04ZM78.68 60.05C73.53 60.05 69.12 61.89 65.45 65.56C61.78 69.22 59.95 73.63 59.95 78.79C59.95 83.94 61.78 88.35 65.45 92.01C69.12 95.68 73.53 97.52 78.68 97.52C83.83 97.52 88.24 95.68 91.91 92.01C95.57 88.35 97.41 83.94 97.41 78.79C97.41 73.63 95.57 69.22 91.91 65.56C88.24 61.89 83.83 60.05 78.68 60.05ZM52.34 35L50.93 38.63C50.7 39.1 50.33 39.45 49.82 39.68C49.31 39.92 48.82 39.92 48.35 39.68L41.68 36.99C40.35 38.86 38.75 40.42 36.88 41.67L39.69 48.35C39.93 48.89 39.93 49.4 39.69 49.87C39.46 50.34 39.11 50.69 38.64 50.92L35.01 52.44C34.54 52.68 34.05 52.68 33.55 52.44C33.04 52.21 32.67 51.86 32.43 51.39L29.62 44.72C28.37 44.95 27.24 45.07 26.23 45.07C25.29 45.07 24.2 44.95 22.95 44.72L20.14 51.39C19.98 51.86 19.65 52.21 19.15 52.44C18.64 52.68 18.11 52.68 17.56 52.44L14.05 50.92C13.51 50.77 13.14 50.43 12.94 49.93C12.75 49.42 12.73 48.89 12.88 48.35L15.69 41.79C13.82 40.46 12.22 38.86 10.89 36.99L4.22 39.8C3.75 39.96 3.26 39.94 2.76 39.74C2.25 39.55 1.88 39.21 1.64 38.75L0.24 35.12C0 34.57 -0.02 34.04 0.18 33.54C0.37 33.03 0.75 32.7 1.29 32.54L7.85 29.73C7.61 28.48 7.5 27.35 7.5 26.34C7.5 25.4 7.61 24.27 7.85 22.94L1.17 20.25C0.71 20.01 0.37 19.66 0.18 19.2C-0.02 18.73 -0.04 18.22 0.12 17.67L1.64 14.04C1.88 13.58 2.23 13.22 2.7 12.99C3.16 12.76 3.67 12.76 4.22 12.99L10.89 15.68C12.14 13.81 13.7 12.25 15.57 11L12.88 4.33C12.65 3.78 12.63 3.27 12.82 2.8C13.02 2.34 13.39 1.99 13.94 1.75L17.56 0.23C18.03 0 18.52 0 19.03 0.23C19.54 0.46 19.91 0.81 20.14 1.28L22.83 7.96C24.08 7.72 25.21 7.6 26.23 7.6C27.24 7.6 28.37 7.72 29.62 7.96L32.32 1.28C32.55 0.74 32.92 0.37 33.43 0.17C33.94 -0.02 34.42 0 34.89 0.23L38.52 1.75C39.07 1.91 39.44 2.24 39.63 2.75C39.83 3.25 39.81 3.74 39.57 4.21L36.88 10.88C38.75 12.21 40.35 13.81 41.68 15.68L48.24 12.87C48.78 12.72 49.31 12.74 49.82 12.93C50.33 13.13 50.66 13.46 50.81 13.93L52.34 17.56C52.57 18.1 52.59 18.63 52.39 19.14C52.2 19.64 51.83 19.98 51.28 20.13L44.61 22.94C44.84 24.19 44.96 25.32 44.96 26.34C44.96 27.35 44.84 28.48 44.61 29.73L51.28 32.42C51.83 32.66 52.2 33.01 52.39 33.48C52.59 33.95 52.57 34.45 52.34 35ZM26.29 15.1C23.2 15.1 20.55 16.19 18.33 18.38C16.1 20.56 14.99 23.21 14.99 26.34C14.99 29.46 16.1 32.11 18.33 34.3C20.55 36.48 23.2 37.58 26.29 37.58C29.37 37.58 32 36.48 34.19 34.3C36.37 32.11 37.47 29.46 37.47 26.34C37.47 23.21 36.37 20.56 34.19 18.38C32 16.19 29.37 15.1 26.29 15.1Z" fill="#FE9E45" fill-opacity="1.000000" fill-rule="nonzero"/>
	</g>
</svg>
