<svg width="40.000000" height="40.000000" viewBox="0 0 40 40" fill="none" xmlns="http://www.w3.org/2000/svg" xmlns:xlink="http://www.w3.org/1999/xlink">
	<desc>
			Created with Pixso.
	</desc>
	<defs>
		<clipPath id="clip219_246">
			<rect id="clarity:rack-server-solid" rx="0.000000" width="39.000000" height="39.000000" transform="translate(0.500000 0.500000)" fill="white" fill-opacity="0"/>
		</clipPath>
	</defs>
	<rect id="clarity:rack-server-solid" rx="0.000000" width="39.000000" height="39.000000" transform="translate(0.500000 0.500000)" fill="#FFFFFF" fill-opacity="0"/>
	<g clip-path="url(#clip219_246)">
		<path id="Vector" d="M2.22 24.44L37.77 24.44L37.77 15.55L2.22 15.55L2.22 24.44ZM11.11 18.88L26.66 18.88L26.66 21.11L11.11 21.11L11.11 18.88ZM6.66 18.88L8.88 18.88L8.88 21.11L6.66 21.11L6.66 18.88Z" fill="#FE9E45" fill-opacity="1.000000" fill-rule="nonzero"/>
		<path id="Vector" d="M35.55 4.44L4.44 4.44C3.85 4.44 3.28 4.67 2.87 5.09C2.45 5.51 2.22 6.07 2.22 6.66L2.22 13.33L37.77 13.33L37.77 6.66C37.77 6.07 37.54 5.51 37.12 5.09C36.71 4.67 36.14 4.44 35.55 4.44ZM8.88 10L6.66 10L6.66 7.77L8.88 7.77L8.88 10ZM26.66 10L11.11 10L11.11 7.77L26.66 7.77L26.66 10Z" fill="#FE9E45" fill-opacity="1.000000" fill-rule="nonzero"/>
		<path id="Vector" d="M2.22 33.33C2.22 33.92 2.45 34.48 2.87 34.9C3.28 35.32 3.85 35.55 4.44 35.55L35.55 35.55C36.14 35.55 36.71 35.32 37.12 34.9C37.54 34.48 37.77 33.92 37.77 33.33L37.77 26.66L2.22 26.66L2.22 33.33ZM11.11 30L26.66 30L26.66 32.22L11.11 32.22L11.11 30ZM6.66 30L8.88 30L8.88 32.22L6.66 32.22L6.66 30Z" fill="#FE9E45" fill-opacity="1.000000" fill-rule="nonzero"/>
	</g>
</svg>
