<svg width="25.000000" height="22.000000" viewBox="0 0 25 22" fill="none" xmlns="http://www.w3.org/2000/svg" xmlns:xlink="http://www.w3.org/1999/xlink">
	<desc>
			Created with Pixso.
	</desc>
	<defs>
		<clipPath id="clip219_272">
			<rect id="fa-solid:cart-arrow-down" rx="0.000000" width="24.000000" height="21.000000" transform="translate(0.500000 0.500000)" fill="white" fill-opacity="0"/>
		</clipPath>
	</defs>
	<rect id="fa-solid:cart-arrow-down" rx="0.000000" width="24.000000" height="21.000000" transform="translate(0.500000 0.500000)" fill="#FFFFFF" fill-opacity="0"/>
	<g clip-path="url(#clip219_272)">
		<path id="Vector" d="M21.9 13.75L9.18 13.75L9.46 15.12L21.11 15.12C21.78 15.12 22.28 15.73 22.13 16.38L21.89 17.42C22.7 17.81 23.26 18.64 23.26 19.59C23.26 20.93 22.15 22.01 20.79 21.99C19.5 21.98 18.43 20.94 18.4 19.66C18.38 18.96 18.66 18.32 19.13 17.87L10.03 17.87C10.48 18.31 10.76 18.92 10.76 19.59C10.76 20.96 9.61 22.06 8.21 21.99C6.97 21.94 5.97 20.94 5.9 19.72C5.85 18.77 6.35 17.94 7.12 17.5L4.07 2.75L1.04 2.75C0.46 2.75 0 2.28 0 1.71L0 1.03C0 0.46 0.46 0 1.04 0L5.49 0C5.98 0 6.41 0.34 6.51 0.82L6.91 2.75L23.95 2.75C24.62 2.75 25.12 3.36 24.97 4L22.92 12.94C22.81 13.41 22.39 13.75 21.9 13.75ZM17.49 8.25L15.62 8.25L15.62 5.67C15.62 5.38 15.39 5.15 15.1 5.15L14.06 5.15C13.77 5.15 13.54 5.38 13.54 5.67L13.54 8.25L11.67 8.25C11.21 8.25 10.97 8.8 11.3 9.13L14.21 12.01C14.41 12.21 14.74 12.21 14.95 12.01L17.86 9.13C18.18 8.8 17.95 8.25 17.49 8.25Z" fill="#FFFFFF" fill-opacity="1.000000" fill-rule="nonzero"/>
	</g>
</svg>
