<svg width="25.000000" height="25.000000" viewBox="0 0 25 25" fill="none" xmlns="http://www.w3.org/2000/svg" xmlns:xlink="http://www.w3.org/1999/xlink">
	<desc>
			Created with Pixso.
	</desc>
	<defs>
		<clipPath id="clip219_368">
			<rect id="uiw:mail-o" rx="0.000000" width="24.000000" height="24.000000" transform="translate(0.500000 0.500000)" fill="white" fill-opacity="0"/>
		</clipPath>
	</defs>
	<rect id="uiw:mail-o" rx="0.000000" width="24.000000" height="24.000000" transform="translate(0.500000 0.500000)" fill="#FFFFFF" fill-opacity="0"/>
	<g clip-path="url(#clip219_368)">
		<path id="Vector" d="M22.91 3.12C24.06 3.12 25 4.05 25 5.2L25 19.79C25 20.94 24.06 21.87 22.91 21.87L2.08 21.87C0.93 21.87 0 20.94 0 19.79L0 5.2C0 4.05 0.93 3.12 2.08 3.12L22.91 3.12ZM8.95 14.16L2.82 20.22L21.97 20.22L15.9 14.22L12.5 16.58L8.95 14.16ZM23.3 9.11L17.3 13.25L23.3 19.18L23.3 9.11ZM1.7 9.19L1.7 18.98L7.55 13.19L1.7 9.19ZM22.89 4.77L2.12 4.77C2 4.77 1.89 4.8 1.81 4.88C1.77 4.91 1.74 4.96 1.72 5C1.7 5.05 1.69 5.1 1.7 5.16L1.7 7.18L12.5 14.56L23.3 7.11L23.3 5.24C23.3 5.08 23.26 4.95 23.18 4.88C23.15 4.84 23.1 4.81 23.05 4.79C23 4.78 22.95 4.77 22.89 4.77L22.89 4.77Z" fill="#FFFFFF" fill-opacity="1.000000" fill-rule="evenodd"/>
	</g>
</svg>
