<svg width="100.000000" height="100.000000" viewBox="0 0 100 100" fill="none" xmlns="http://www.w3.org/2000/svg" xmlns:xlink="http://www.w3.org/1999/xlink">
	<desc>
			Created with Pixso.
	</desc>
	<defs>
		<clipPath id="clip219_131">
			<rect rx="0.000000" width="99.000000" height="99.000000" transform="translate(0.500000 0.500000)" fill="white" fill-opacity="0"/>
		</clipPath>
	</defs>
	<rect rx="0.000000" width="99.000000" height="99.000000" transform="translate(0.500000 0.500000)" fill="#FFFFFF" fill-opacity="0"/>
	<g clip-path="url(#clip219_131)">
		<path d="M87.5 45.83C87.5 68.95 71.5 90.58 50 95.83C28.5 90.58 12.5 68.95 12.5 45.83L12.5 20.83L50 4.16L87.5 20.83L87.5 45.83ZM50 87.5C65.62 83.33 79.16 64.75 79.16 46.75L79.16 26.25L50 13.25L20.83 26.25L20.83 46.75C20.83 64.75 34.37 83.33 50 87.5ZM41.66 70.83L25 54.16L30.87 48.29L41.66 59.04L69.12 31.58L75 37.5L41.66 70.83Z" fill="#FFFFFF" fill-opacity="1.000000" fill-rule="nonzero"/>
	</g>
</svg>
