<svg width="100.000000" height="100.000000" viewBox="0 0 100 100" fill="none" xmlns="http://www.w3.org/2000/svg" xmlns:xlink="http://www.w3.org/1999/xlink">
	<desc>
			Created with Pixso.
	</desc>
	<defs>
		<clipPath id="clip219_127">
			<rect rx="0.000000" width="99.000000" height="99.000000" transform="translate(0.500000 0.500000)" fill="white" fill-opacity="0"/>
		</clipPath>
	</defs>
	<rect rx="0.000000" width="99.000000" height="99.000000" transform="translate(0.500000 0.500000)" fill="#FFFFFF" fill-opacity="0"/>
	<g clip-path="url(#clip219_127)">
		<path d="M40.82 12.5C38.08 12.5 35.68 13.9 33.98 15.72C32.28 17.54 31.06 19.81 29.98 22.26C28.32 26.04 27.13 30.25 26.07 34.18C22.68 35.16 19.79 36.4 17.48 37.89C14.77 39.63 12.5 42.05 12.5 45.31C12.5 48.14 14.23 50.41 16.4 52.05C18.26 53.44 20.54 54.6 23.24 55.56C23.39 56.28 23.63 57.01 23.92 57.71C21.29 59.2 17.11 62.08 13.08 67.57L11.23 70.21L13.86 72.06L24.11 79.1L19.92 87.5L80.08 87.5L75.88 79.1L86.13 72.06L88.77 70.21L86.91 67.57C82.88 62.08 78.71 59.2 76.07 57.71C76.37 57.01 76.6 56.28 76.76 55.56C79.45 54.6 81.74 53.44 83.59 52.05C85.76 50.41 87.5 48.14 87.5 45.31C87.5 42.05 85.23 39.63 82.52 37.89C80.2 36.4 77.32 35.16 73.92 34.17C72.75 30.1 71.46 25.83 69.82 22.07C68.76 19.64 67.59 17.4 65.92 15.62C64.25 13.84 61.86 12.5 59.18 12.5C57.36 12.5 55.98 13 54.49 13.37C53 13.75 51.5 14.06 50 14.06C47 14.06 44.48 12.5 40.82 12.5ZM40.82 18.75C41.46 18.75 45.31 20.31 50 20.31C52.34 20.31 54.43 19.83 56.05 19.43C57.67 19.02 58.91 18.75 59.18 18.75C59.89 18.75 60.43 18.98 61.32 19.92C62.21 20.85 63.26 22.55 64.15 24.6C65.85 28.49 67.14 33.79 68.55 38.67C68.55 38.65 68.72 38.52 68.26 38.76C67.48 39.19 65.84 39.74 63.86 40.03C59.89 40.63 54.49 40.62 50 40.62C45.53 40.62 40.11 40.56 36.13 39.94C34.14 39.63 32.53 39.09 31.73 38.67C31.49 38.53 31.4 38.58 31.34 38.57L31.34 38.47C31.35 38.45 31.33 38.4 31.34 38.37L31.44 38.28C31.67 37.86 31.81 37.39 31.83 36.91L31.83 36.81C32.95 32.66 34.21 28.27 35.74 24.8C36.65 22.71 37.64 21.02 38.57 20.02C39.5 19.01 40.13 18.75 40.82 18.75ZM25.58 40.91C26.29 42.38 27.54 43.55 28.8 44.23C30.71 45.25 32.89 45.72 35.25 46.09C39.96 46.82 45.48 46.87 50 46.87C54.49 46.87 60.02 46.9 64.74 46.19C67.11 45.83 69.27 45.37 71.19 44.33C72.47 43.64 73.71 42.4 74.41 40.91C76.34 41.6 77.96 42.33 79.1 43.06C80.92 44.23 81.25 45.1 81.25 45.31C81.25 45.49 81.09 46.09 79.78 47.07C78.47 48.04 76.23 49.18 73.34 50.09C67.55 51.94 59.22 53.12 50 53.12C40.77 53.12 32.44 51.94 26.65 50.09C23.76 49.18 21.52 48.04 20.21 47.07C18.9 46.09 18.75 45.49 18.75 45.31C18.75 45.1 18.99 44.32 20.8 43.16C21.93 42.43 23.6 41.63 25.58 40.91L25.58 40.91ZM33.69 58C34.71 58.17 35.73 58.45 36.81 58.59C37.22 61.34 39.35 63.75 42.77 63.96C45.4 64.12 48.37 62.87 48.63 59.37L51.36 59.37C51.62 62.87 54.58 64.12 57.22 63.96C60.64 63.75 62.78 61.34 63.18 58.59C64.26 58.45 65.28 58.17 66.3 58L66.01 59.95C65.05 65.1 62.75 69.85 59.86 73.14C56.96 76.42 53.57 78.17 50 78.12C46.32 78.07 43 76.3 40.13 73.04C37.26 69.78 35.01 65.12 33.98 59.95L33.69 58ZM71.87 62.5C73.03 63.18 76.08 65.18 79.59 69.04L70.11 75.58L67.87 77.05L69.04 79.49L69.92 81.25L60.05 81.25C61.72 80.11 63.23 78.76 64.55 77.24C67.99 73.34 70.3 68.22 71.58 62.69C71.69 62.63 71.77 62.56 71.87 62.5ZM28.02 62.59C28.14 62.67 28.29 62.72 28.41 62.79C29.76 68.25 32.05 73.3 35.45 77.14C36.85 78.74 38.48 80.11 40.23 81.25L30.07 81.25L30.95 79.49L32.12 77.05L29.88 75.58L20.41 69.04C23.71 65.39 26.73 63.37 28.02 62.59Z" fill="#FFFFFF" fill-opacity="1.000000" fill-rule="nonzero"/>
	</g>
</svg>
