<svg width="45.000000" height="45.000000" viewBox="0 0 45 45" fill="none" xmlns="http://www.w3.org/2000/svg" xmlns:xlink="http://www.w3.org/1999/xlink">
	<desc>
			Created with Pixso.
	</desc>
	<defs>
		<clipPath id="clip219_143">
			<rect rx="0.000000" width="44.000000" height="44.000000" transform="translate(0.500000 0.500000)" fill="white" fill-opacity="0"/>
		</clipPath>
	</defs>
	<rect rx="0.000000" width="44.000000" height="44.000000" transform="translate(0.500000 0.500000)" fill="#FFFFFF" fill-opacity="0"/>
	<g clip-path="url(#clip219_143)">
		<path d="M28.12 31.87C27.75 31.87 27.39 31.98 27.08 32.19C26.77 32.39 26.53 32.68 26.39 33.03C26.25 33.37 26.21 33.75 26.28 34.11C26.35 34.47 26.53 34.81 26.79 35.07C27.06 35.33 27.39 35.51 27.75 35.58C28.12 35.66 28.5 35.62 28.84 35.48C29.18 35.34 29.47 35.09 29.68 34.79C29.89 34.48 30 34.12 30 33.75C30 33.25 29.8 32.77 29.45 32.42C29.09 32.07 28.62 31.87 28.12 31.87ZM16.87 31.87L11.25 31.87C10.75 31.87 10.27 32.07 9.92 32.42C9.57 32.77 9.37 33.25 9.37 33.75C9.37 34.24 9.57 34.72 9.92 35.07C10.27 35.42 10.75 35.62 11.25 35.62L16.87 35.62C17.37 35.62 17.84 35.42 18.2 35.07C18.55 34.72 18.75 34.24 18.75 33.75C18.75 33.25 18.55 32.77 18.2 32.42C17.84 32.07 17.37 31.87 16.87 31.87ZM33.75 31.87C33.37 31.87 33.01 31.98 32.7 32.19C32.39 32.39 32.15 32.68 32.01 33.03C31.87 33.37 31.83 33.75 31.91 34.11C31.98 34.47 32.16 34.81 32.42 35.07C32.68 35.33 33.02 35.51 33.38 35.58C33.74 35.66 34.12 35.62 34.46 35.48C34.81 35.34 35.1 35.09 35.3 34.79C35.51 34.48 35.62 34.12 35.62 33.75C35.62 33.25 35.42 32.77 35.07 32.42C34.72 32.07 34.24 31.87 33.75 31.87ZM28.12 20.62C27.75 20.62 27.39 20.73 27.08 20.94C26.77 21.14 26.53 21.43 26.39 21.78C26.25 22.12 26.21 22.5 26.28 22.86C26.35 23.22 26.53 23.56 26.79 23.82C27.06 24.08 27.39 24.26 27.75 24.33C28.12 24.41 28.5 24.37 28.84 24.23C29.18 24.09 29.47 23.85 29.68 23.54C29.89 23.23 30 22.87 30 22.5C30 22 29.8 21.52 29.45 21.17C29.09 20.82 28.62 20.62 28.12 20.62ZM16.87 20.62L11.25 20.62C10.75 20.62 10.27 20.82 9.92 21.17C9.57 21.52 9.37 22 9.37 22.5C9.37 22.99 9.57 23.47 9.92 23.82C10.27 24.17 10.75 24.37 11.25 24.37L16.87 24.37C17.37 24.37 17.84 24.17 18.2 23.82C18.55 23.47 18.75 22.99 18.75 22.5C18.75 22 18.55 21.52 18.2 21.17C17.84 20.82 17.37 20.62 16.87 20.62ZM33.75 9.37C33.37 9.37 33.01 9.48 32.7 9.69C32.39 9.89 32.15 10.18 32.01 10.53C31.87 10.87 31.83 11.25 31.91 11.61C31.98 11.97 32.16 12.31 32.42 12.57C32.68 12.83 33.02 13.01 33.38 13.08C33.74 13.16 34.12 13.12 34.46 12.98C34.81 12.84 35.1 12.6 35.3 12.29C35.51 11.98 35.62 11.62 35.62 11.25C35.62 10.75 35.42 10.27 35.07 9.92C34.72 9.57 34.24 9.37 33.75 9.37ZM33.75 20.62C33.37 20.62 33.01 20.73 32.7 20.94C32.39 21.14 32.15 21.43 32.01 21.78C31.87 22.12 31.83 22.5 31.91 22.86C31.98 23.22 32.16 23.56 32.42 23.82C32.68 24.08 33.02 24.26 33.38 24.33C33.74 24.41 34.12 24.37 34.46 24.23C34.81 24.09 35.1 23.85 35.3 23.54C35.51 23.23 35.62 22.87 35.62 22.5C35.62 22 35.42 21.52 35.07 21.17C34.72 20.82 34.24 20.62 33.75 20.62ZM41.25 9.37C41.25 7.88 40.65 6.45 39.6 5.39C38.54 4.34 37.11 3.75 35.62 3.75L9.37 3.75C7.88 3.75 6.45 4.34 5.39 5.39C4.34 6.45 3.75 7.88 3.75 9.37L3.75 13.12C3.75 14.51 4.27 15.84 5.21 16.87C4.27 17.9 3.75 19.23 3.75 20.62L3.75 24.37C3.75 25.76 4.27 27.09 5.21 28.12C4.27 29.15 3.75 30.48 3.75 31.87L3.75 35.62C3.75 37.11 4.34 38.54 5.39 39.6C6.45 40.65 7.88 41.25 9.37 41.25L35.62 41.25C37.11 41.25 38.54 40.65 39.6 39.6C40.65 38.54 41.25 37.11 41.25 35.62L41.25 31.87C41.24 30.48 40.72 29.15 39.78 28.12C40.72 27.09 41.24 25.76 41.25 24.37L41.25 20.62C41.24 19.23 40.72 17.9 39.78 16.87C40.72 15.84 41.24 14.51 41.25 13.12L41.25 9.37ZM37.5 35.62C37.5 36.12 37.3 36.59 36.95 36.95C36.59 37.3 36.12 37.5 35.62 37.5L9.37 37.5C8.87 37.5 8.4 37.3 8.04 36.95C7.69 36.59 7.5 36.12 7.5 35.62L7.5 31.87C7.5 31.37 7.69 30.9 8.04 30.54C8.4 30.19 8.87 30 9.37 30L35.62 30C36.12 30 36.59 30.19 36.95 30.54C37.3 30.9 37.5 31.37 37.5 31.87L37.5 35.62ZM37.5 24.37C37.5 24.87 37.3 25.34 36.95 25.7C36.59 26.05 36.12 26.25 35.62 26.25L9.37 26.25C8.87 26.25 8.4 26.05 8.04 25.7C7.69 25.34 7.5 24.87 7.5 24.37L7.5 20.62C7.5 20.12 7.69 19.65 8.04 19.29C8.4 18.94 8.87 18.75 9.37 18.75L35.62 18.75C36.12 18.75 36.59 18.94 36.95 19.29C37.3 19.65 37.5 20.12 37.5 20.62L37.5 24.37ZM37.5 13.12C37.5 13.62 37.3 14.09 36.95 14.45C36.59 14.8 36.12 15 35.62 15L9.37 15C8.87 15 8.4 14.8 8.04 14.45C7.69 14.09 7.5 13.62 7.5 13.12L7.5 9.37C7.5 8.87 7.69 8.4 8.04 8.04C8.4 7.69 8.87 7.5 9.37 7.5L35.62 7.5C36.12 7.5 36.59 7.69 36.95 8.04C37.3 8.4 37.5 8.87 37.5 9.37L37.5 13.12ZM28.12 9.37C27.75 9.37 27.39 9.48 27.08 9.69C26.77 9.89 26.53 10.18 26.39 10.53C26.25 10.87 26.21 11.25 26.28 11.61C26.35 11.97 26.53 12.31 26.79 12.57C27.06 12.83 27.39 13.01 27.75 13.08C28.12 13.16 28.5 13.12 28.84 12.98C29.18 12.84 29.47 12.6 29.68 12.29C29.89 11.98 30 11.62 30 11.25C30 10.75 29.8 10.27 29.45 9.92C29.09 9.57 28.62 9.37 28.12 9.37ZM16.87 9.37L11.25 9.37C10.75 9.37 10.27 9.57 9.92 9.92C9.57 10.27 9.37 10.75 9.37 11.25C9.37 11.74 9.57 12.22 9.92 12.57C10.27 12.92 10.75 13.12 11.25 13.12L16.87 13.12C17.37 13.12 17.84 12.92 18.2 12.57C18.55 12.22 18.75 11.74 18.75 11.25C18.75 10.75 18.55 10.27 18.2 9.92C17.84 9.57 17.37 9.37 16.87 9.37Z" fill="#FFFFFF" fill-opacity="1.000000" fill-rule="nonzero"/>
	</g>
</svg>
