<?xml version="1.0" encoding="utf-8"?><svg xmlns="http://www.w3.org/2000/svg" xmlns:xlink="http://www.w3.org/1999/xlink"><symbol viewBox="0 0 70 70" id="about-item1" xmlns="http://www.w3.org/2000/svg"><desc>Created with Pixso.</desc><defs><clipPath id="aclip219_211"><rect id="abx:bx-support" rx="0.000000" width="69.000000" height="69.000000" transform="translate(0.500000 0.500000)" fill-opacity="0"/></clipPath></defs><rect id="abx:bx-support" rx="0.000000" width="69.000000" height="69.000000" transform="translate(0.500000 0.500000)" fill-opacity="0"/><g clip-path="url(#aclip219_211)"><path id="aVector" d="M35 5.83C18.91 5.83 5.83 18.91 5.83 35L5.83 47.08C5.83 50.07 8.44 52.5 11.66 52.5L14.58 52.5C15.35 52.5 16.09 52.19 16.64 51.64C17.19 51.09 17.5 50.35 17.5 49.58L17.5 34.58C17.5 33.8 17.19 33.06 16.64 32.52C16.09 31.97 15.35 31.66 14.58 31.66L11.93 31.66C13.55 20.37 23.26 11.66 35 11.66C46.73 11.66 56.44 20.37 58.06 31.66L55.41 31.66C54.64 31.66 53.9 31.97 53.35 32.52C52.8 33.06 52.5 33.8 52.5 34.58L52.5 52.5C52.5 55.71 49.88 58.33 46.66 58.33L40.83 58.33L40.83 55.41L29.16 55.41L29.16 64.16L46.66 64.16C53.1 64.16 58.33 58.93 58.33 52.5C61.55 52.5 64.16 50.07 64.16 47.08L64.16 35C64.16 18.91 51.08 5.83 35 5.83Z" fill-opacity="1.000000" fill-rule="nonzero"/></g></symbol><symbol viewBox="0 0 70 70" id="about-item2" xmlns="http://www.w3.org/2000/svg"><desc>Created with Pixso.</desc><defs><clipPath id="bclip219_216"><rect id="bri:team-fill" rx="0.000000" width="69.000000" height="69.000000" transform="translate(0.500000 0.500000)" fill-opacity="0"/></clipPath></defs><rect id="bri:team-fill" rx="0.000000" width="69.000000" height="69.000000" transform="translate(0.500000 0.500000)" fill-opacity="0"/><g clip-path="url(#bclip219_216)"><path id="bVector" d="M35 32.08C38.86 32.08 42.57 33.61 45.31 36.35C48.04 39.08 49.58 42.79 49.58 46.66L49.58 64.16L20.41 64.16L20.41 46.66C20.41 42.79 21.95 39.08 24.68 36.35C27.42 33.61 31.13 32.08 35 32.08ZM15.42 40.85C14.95 42.41 14.68 44.03 14.6 45.66L14.58 46.66L14.58 64.16L5.83 64.16L5.83 51.04C5.83 48.52 6.76 46.09 8.43 44.22C10.11 42.35 12.42 41.16 14.93 40.89L15.42 40.85L15.42 40.85ZM54.57 40.85C57.17 41 59.6 42.15 61.39 44.04C63.17 45.93 64.16 48.44 64.16 51.04L64.16 64.16L55.41 64.16L55.41 46.66C55.41 44.64 55.12 42.69 54.57 40.85ZM16.04 23.33C17.97 23.33 19.83 24.1 21.19 25.46C22.56 26.83 23.33 28.69 23.33 30.62C23.33 32.55 22.56 34.41 21.19 35.78C19.83 37.14 17.97 37.91 16.04 37.91C14.1 37.91 12.25 37.14 10.88 35.78C9.51 34.41 8.75 32.55 8.75 30.62C8.75 28.69 9.51 26.83 10.88 25.46C12.25 24.1 14.1 23.33 16.04 23.33ZM53.95 23.33C55.89 23.33 57.74 24.1 59.11 25.46C60.48 26.83 61.25 28.69 61.25 30.62C61.25 32.55 60.48 34.41 59.11 35.78C57.74 37.14 55.89 37.91 53.95 37.91C52.02 37.91 50.16 37.14 48.8 35.78C47.43 34.41 46.66 32.55 46.66 30.62C46.66 28.69 47.43 26.83 48.8 25.46C50.16 24.1 52.02 23.33 53.95 23.33ZM35 5.83C38.09 5.83 41.06 7.06 43.24 9.25C45.43 11.43 46.66 14.4 46.66 17.5C46.66 20.59 45.43 23.56 43.24 25.74C41.06 27.93 38.09 29.16 35 29.16C31.9 29.16 28.93 27.93 26.75 25.74C24.56 23.56 23.33 20.59 23.33 17.5C23.33 14.4 24.56 11.43 26.75 9.25C28.93 7.06 31.9 5.83 35 5.83Z" fill-opacity="1.000000" fill-rule="nonzero"/></g></symbol><symbol viewBox="0 0 70 70" id="about-item3" xmlns="http://www.w3.org/2000/svg"><desc>Created with Pixso.</desc><defs><clipPath id="cclip219_221"><rect id="cclarity:employee-solid" rx="0.000000" width="69.000000" height="69.000000" transform="translate(0.500000 0.500000)" fill-opacity="0"/></clipPath></defs><rect id="cclarity:employee-solid" rx="0.000000" width="69.000000" height="69.000000" transform="translate(0.500000 0.500000)" fill-opacity="0"/><g clip-path="url(#cclip219_221)"><path id="cVector" d="M45.34 18.91C45.34 25.85 39.72 31.48 32.78 31.48C25.84 31.48 20.22 25.85 20.22 18.91C20.22 11.98 25.84 6.35 32.78 6.35C39.72 6.35 45.34 11.98 45.34 18.91Z" fill-opacity="1.000000" fill-rule="evenodd"/><path id="cVector" d="M40.83 54.44L54.44 54.44L54.44 57.16L40.83 57.16L40.83 54.44Z" fill-opacity="1.000000" fill-rule="nonzero"/><path id="cVector" d="M29.16 58.33L29.16 64.16C29.16 64.68 29.37 65.17 29.73 65.54C30.1 65.9 30.59 66.11 31.11 66.11L64.16 66.11C64.68 66.11 65.17 65.9 65.54 65.54C65.9 65.17 66.11 64.68 66.11 64.16L66.11 44.72C66.11 44.2 65.9 43.71 65.54 43.34C65.17 42.98 64.68 42.77 64.16 42.77L50.55 42.77L50.55 39.91C50.55 39.4 50.35 38.9 49.98 38.54C49.62 38.17 49.12 37.97 48.61 37.97C48.09 37.97 47.6 38.17 47.23 38.54C46.87 38.9 46.66 39.4 46.66 39.91L46.66 42.77L42.77 42.77L42.77 35.81C39.47 35.27 36.13 35 32.78 35C25.39 34.96 18.09 36.55 11.39 39.64C10.29 40.16 9.35 40.99 8.71 42.02C8.06 43.06 7.72 44.26 7.73 45.48L7.73 58.33L29.16 58.33ZM62.22 62.22L33.05 62.22L33.05 46.66L46.66 46.66L46.66 47.48C46.66 47.99 46.87 48.49 47.23 48.85C47.6 49.22 48.09 49.42 48.61 49.42C49.12 49.42 49.62 49.22 49.98 48.85C50.35 48.49 50.55 47.99 50.55 47.48L50.55 46.66L62.22 46.66L62.22 62.22Z" fill-opacity="1.000000" fill-rule="nonzero"/></g></symbol><symbol viewBox="0 0 70 70" id="about-item4" xmlns="http://www.w3.org/2000/svg"><desc>Created with Pixso.</desc><defs><clipPath id="dclip219_229"><rect id="dfa-solid:comments-dollar" rx="0.000000" width="69.000000" height="69.000000" transform="translate(0.500000 0.500000)" fill-opacity="0"/></clipPath></defs><rect id="dfa-solid:comments-dollar" rx="0.000000" width="69.000000" height="69.000000" transform="translate(0.500000 0.500000)" fill-opacity="0"/><g clip-path="url(#dclip219_229)"><path id="dVector" d="M50.55 26.25C50.55 14.16 39.23 4.37 25.27 4.37C11.31 4.37 0 14.16 0 26.25C0 30.93 1.71 35.26 4.61 38.82C2.99 42.95 0.3 46.23 0.26 46.27C0.13 46.43 0.04 46.62 0.01 46.83C-0.02 47.05 0 47.26 0.07 47.46C0.15 47.65 0.27 47.82 0.43 47.94C0.59 48.06 0.78 48.12 0.97 48.12C5.41 48.12 9.1 46.45 11.75 44.7C15.66 46.86 20.29 48.12 25.27 48.12C39.23 48.12 50.55 38.33 50.55 26.25ZM23.33 39.37L23.33 37.14C21.96 37.06 20.62 36.52 19.52 35.59C19.04 35.19 19.02 34.39 19.45 33.93L20.87 32.4C21.21 32.04 21.71 32.02 22.11 32.3C22.58 32.63 23.11 32.81 23.66 32.81L27.08 32.81C27.87 32.81 28.51 32 28.51 31C28.51 30.19 28.08 29.47 27.45 29.26L21.98 27.42C19.72 26.66 18.14 24.22 18.14 21.49C18.14 18.13 20.46 15.41 23.33 15.32L23.33 13.12C23.33 12.52 23.76 12.03 24.3 12.03L26.24 12.03C26.78 12.03 27.22 12.52 27.22 13.12L27.22 15.35C28.59 15.43 29.92 15.96 31.03 16.9C31.5 17.3 31.53 18.1 31.1 18.56L29.67 20.09C29.33 20.45 28.83 20.47 28.44 20.19C27.97 19.86 27.43 19.68 26.88 19.68L23.46 19.68C22.67 19.68 22.03 20.49 22.03 21.49C22.03 22.3 22.47 23.02 23.1 23.23L28.57 25.07C30.82 25.83 32.4 28.27 32.4 31C32.4 34.36 30.09 37.08 27.22 37.17L27.22 39.37C27.22 39.97 26.78 40.46 26.25 40.46L24.3 40.46C23.76 40.46 23.33 39.97 23.33 39.37ZM65.38 56.32C68.28 52.76 70 48.43 70 43.75C70 34.59 63.49 26.76 54.28 23.5C54.38 24.4 54.44 25.32 54.44 26.25C54.44 40.72 41.36 52.5 25.27 52.5C23.96 52.5 22.68 52.39 21.42 52.24C25.25 60.1 34.24 65.62 44.72 65.62C49.7 65.62 54.33 64.36 58.24 62.2C60.89 63.95 64.58 65.62 69.02 65.62C69.41 65.62 69.76 65.36 69.91 64.96C70.07 64.56 70 64.09 69.73 63.77C69.69 63.73 67 60.46 65.38 56.32Z" fill-opacity="1.000000" fill-rule="nonzero"/></g></symbol><symbol viewBox="0 0 70 70" id="about-item5" xmlns="http://www.w3.org/2000/svg"><desc>Created with Pixso.</desc><defs><clipPath id="eclip219_234"><rect id="eicon-park-outline:people-safe" rx="0.000000" width="69.000000" height="69.000000" transform="translate(0.500000 0.500000)" fill-opacity="0"/></clipPath></defs><rect id="eicon-park-outline:people-safe" rx="0.000000" width="69.000000" height="69.000000" transform="translate(0.500000 0.500000)" fill-opacity="0"/><g clip-path="url(#eclip219_234)"><path id="eVector" d="M35.01 5.83L61.25 13.49L61.25 29.21C61.25 45.73 50.67 58.94 35 64.16C19.32 58.94 8.75 45.73 8.75 29.2L8.75 13.49L35.01 5.83Z" stroke-opacity="1.000000" stroke-width="4.000000" stroke-linejoin="round"/><path id="eVector" d="M49.37 28.14C49.35 27.97 49.31 27.8 49.23 27.65C49.15 27.5 49.04 27.37 48.91 27.26C48.79 27.16 48.64 27.08 48.48 27.04C48.32 26.99 48.15 26.98 47.99 27.01C45.37 27.44 39.25 29.93 35 29.93C30.74 29.93 24.62 27.44 22 27.01C21.84 26.98 21.67 26.99 21.51 27.04C21.35 27.08 21.2 27.16 21.08 27.26C20.95 27.37 20.84 27.5 20.76 27.65C20.68 27.8 20.64 27.97 20.62 28.14C20.41 30.51 20 36.81 20 37.77C20 39.05 25.2 42 29 42C32.67 42 33.42 37.77 35 37.77C36.57 37.77 37.32 42 41 42C44.79 42 50 39.05 50 37.77C50 36.81 49.58 30.51 49.37 28.14ZM31.49 35.69C30.96 36.18 29.48 37.34 27.69 36.98C25.89 36.61 24.81 34.93 24.44 34.26C24.4 34.18 24.38 34.09 24.39 34C24.4 33.91 24.44 33.83 24.51 33.77C25.04 33.28 26.51 32.11 28.3 32.48C30.1 32.84 31.18 34.52 31.55 35.2C31.6 35.27 31.61 35.36 31.6 35.45C31.59 35.54 31.55 35.62 31.49 35.69ZM45.55 34.26C45.18 34.93 44.1 36.61 42.3 36.98C40.51 37.34 39.03 36.18 38.5 35.69C38.44 35.62 38.4 35.54 38.39 35.45C38.38 35.36 38.39 35.27 38.44 35.2C38.81 34.52 39.89 32.84 41.69 32.48C43.48 32.11 44.96 33.28 45.48 33.77C45.55 33.83 45.59 33.91 45.6 34C45.61 34.09 45.59 34.18 45.55 34.26Z" fill-opacity="1.000000" fill-rule="nonzero"/></g></symbol><symbol viewBox="0 0 120 120" id="benefits-item1" xmlns="http://www.w3.org/2000/svg"><desc>Created with Pixso.</desc><defs><clipPath id="fclip219_151"><rect id="fion:rocket-sharp" rx="0.000000" width="119.000000" height="119.000000" transform="translate(0.500000 0.500000)" fill-opacity="0"/></clipPath></defs><rect id="fion:rocket-sharp" rx="0.000000" width="119.000000" height="119.000000" transform="translate(0.500000 0.500000)" fill-opacity="0"/><g clip-path="url(#fclip219_151)"><path id="fVector" d="M111.94 8.96C111.9 8.76 111.8 8.56 111.65 8.41C111.5 8.26 111.32 8.15 111.11 8.1C97.38 4.75 65.66 16.71 48.48 33.89C45.42 36.93 42.62 40.23 40.13 43.75C34.83 43.28 29.53 43.68 25.01 45.64C12.27 51.25 8.56 65.89 7.53 72.18C7.47 72.53 7.49 72.88 7.59 73.22C7.69 73.55 7.87 73.86 8.11 74.11C8.35 74.37 8.65 74.56 8.97 74.68C9.3 74.8 9.65 74.85 10 74.81L30.46 72.55C30.48 74.09 30.57 75.63 30.74 77.17C30.85 78.23 31.32 79.23 32.08 79.98L40 87.89C40.76 88.65 41.75 89.12 42.82 89.22C44.34 89.39 45.87 89.49 47.41 89.5L45.16 109.94C45.12 110.29 45.17 110.64 45.29 110.96C45.41 111.29 45.6 111.59 45.86 111.83C46.11 112.07 46.42 112.24 46.75 112.35C47.09 112.45 47.44 112.47 47.79 112.41C54.07 111.4 68.73 107.69 74.31 94.95C76.27 90.43 76.68 85.16 76.22 79.89C79.76 77.39 83.07 74.6 86.12 71.53C103.35 54.38 115.25 23.37 111.94 8.96ZM68.92 51.07C67.34 49.5 66.27 47.49 65.84 45.31C65.4 43.13 65.62 40.87 66.48 38.81C67.33 36.76 68.77 35 70.62 33.76C72.47 32.52 74.64 31.86 76.87 31.86C79.1 31.86 81.27 32.52 83.12 33.76C84.97 35 86.41 36.76 87.26 38.81C88.12 40.87 88.34 43.13 87.9 45.31C87.47 47.49 86.4 49.5 84.82 51.07C83.78 52.12 82.54 52.95 81.17 53.51C79.81 54.08 78.35 54.37 76.87 54.37C75.39 54.37 73.93 54.08 72.57 53.51C71.2 52.95 69.96 52.12 68.92 51.07Z" fill-opacity="1.000000" fill-rule="nonzero"/><path id="fVector" d="M39.46 93.61C38.18 94.9 36.12 95.4 33.64 95.83C28.07 96.78 23.15 91.96 24.15 86.33C24.53 84.2 25.66 81.2 26.36 80.5C26.52 80.35 26.62 80.15 26.66 79.94C26.69 79.73 26.66 79.51 26.57 79.32C26.47 79.13 26.32 78.97 26.13 78.87C25.94 78.76 25.72 78.73 25.51 78.75C22.39 79.14 19.5 80.55 17.28 82.77C11.77 88.28 11.25 108.75 11.25 108.75C11.25 108.75 31.72 108.23 37.23 102.71C39.46 100.49 40.87 97.59 41.25 94.47C41.33 93.49 40.14 92.91 39.46 93.61Z" fill-opacity="1.000000" fill-rule="nonzero"/></g></symbol><symbol viewBox="0 0 120 120" id="benefits-item2" xmlns="http://www.w3.org/2000/svg"><desc>Created with Pixso.</desc><defs><clipPath id="gclip219_164"><rect id="gwhh:gearsalt" rx="0.000000" width="119.000000" height="119.000000" transform="translate(0.500000 0.500000)" fill-opacity="0"/></clipPath></defs><rect id="gwhh:gearsalt" rx="0.000000" width="119.000000" height="119.000000" transform="translate(0.500000 0.500000)" fill-opacity="0"/><g clip-path="url(#gclip219_164)"><path id="gVector" d="M119.65 75.04C119.81 76.44 119.89 77.69 119.89 78.79C119.89 79.88 119.81 81.13 119.65 82.53L112.16 82.53C111.93 84.4 111.57 86.28 111.11 88.15L118.01 91.08C117.31 93.34 116.37 95.64 115.2 97.99L108.18 95.06C107.32 96.7 106.27 98.3 105.02 99.86L110.29 105.13C108.73 107.08 106.97 108.83 105.02 110.4L99.75 105.13C98.19 106.38 96.59 107.43 94.95 108.29L97.88 115.2C95.54 116.44 93.23 117.42 90.97 118.12L88.04 111.21C86.17 111.68 84.3 112.03 82.42 112.27L82.42 119.76C81.02 119.92 79.77 120 78.68 120C77.58 120 76.34 119.92 74.93 119.76L74.93 112.27C73.06 112.03 71.18 111.68 69.31 111.21L66.5 118.12C64.16 117.42 61.82 116.44 59.48 115.2L62.4 108.29C60.76 107.43 59.2 106.38 57.72 105.13L52.34 110.4C50.38 108.83 48.63 107.08 47.07 105.13L52.34 99.86C51.16 98.3 50.11 96.7 49.17 95.06L42.27 97.99C41.02 95.64 40.04 93.34 39.34 91.08L46.36 88.15C45.82 86.28 45.43 84.4 45.19 82.53L37.7 82.53C37.55 81.13 37.47 79.88 37.47 78.79C37.47 77.69 37.55 76.44 37.7 75.04L45.19 75.04C45.43 73.17 45.82 71.29 46.36 69.42L39.34 66.49C40.04 64.23 41.02 61.93 42.27 59.59L49.17 62.51C50.11 60.87 51.16 59.27 52.34 57.71L47.07 52.44C48.63 50.49 50.38 48.74 52.34 47.18L57.72 52.44C59.2 51.2 60.76 50.14 62.4 49.28L59.48 42.26C61.82 41.09 64.16 40.15 66.5 39.45L69.31 46.36C71.18 45.81 73.06 45.46 74.93 45.3L74.93 37.81C76.34 37.65 77.58 37.58 78.68 37.58C79.77 37.58 81.02 37.65 82.42 37.81L82.42 45.3C84.3 45.46 86.17 45.81 88.04 46.36L90.97 39.45C93.23 40.15 95.54 41.09 97.88 42.26L94.95 49.28C96.59 50.22 98.19 51.27 99.75 52.44L105.02 47.18C106.97 48.74 108.73 50.49 110.29 52.44L105.02 57.71C106.27 59.27 107.32 60.87 108.18 62.51L115.2 59.59C116.37 61.93 117.31 64.23 118.01 66.49L111.11 69.42C111.57 71.29 111.93 73.17 112.16 75.04L119.65 75.04ZM78.68 60.05C73.53 60.05 69.12 61.89 65.45 65.56C61.78 69.22 59.95 73.63 59.95 78.79C59.95 83.94 61.78 88.35 65.45 92.01C69.12 95.68 73.53 97.52 78.68 97.52C83.83 97.52 88.24 95.68 91.91 92.01C95.57 88.35 97.41 83.94 97.41 78.79C97.41 73.63 95.57 69.22 91.91 65.56C88.24 61.89 83.83 60.05 78.68 60.05ZM52.34 35L50.93 38.63C50.7 39.1 50.33 39.45 49.82 39.68C49.31 39.92 48.82 39.92 48.35 39.68L41.68 36.99C40.35 38.86 38.75 40.42 36.88 41.67L39.69 48.35C39.93 48.89 39.93 49.4 39.69 49.87C39.46 50.34 39.11 50.69 38.64 50.92L35.01 52.44C34.54 52.68 34.05 52.68 33.55 52.44C33.04 52.21 32.67 51.86 32.43 51.39L29.62 44.72C28.37 44.95 27.24 45.07 26.23 45.07C25.29 45.07 24.2 44.95 22.95 44.72L20.14 51.39C19.98 51.86 19.65 52.21 19.15 52.44C18.64 52.68 18.11 52.68 17.56 52.44L14.05 50.92C13.51 50.77 13.14 50.43 12.94 49.93C12.75 49.42 12.73 48.89 12.88 48.35L15.69 41.79C13.82 40.46 12.22 38.86 10.89 36.99L4.22 39.8C3.75 39.96 3.26 39.94 2.76 39.74C2.25 39.55 1.88 39.21 1.64 38.75L0.24 35.12C0 34.57 -0.02 34.04 0.18 33.54C0.37 33.03 0.75 32.7 1.29 32.54L7.85 29.73C7.61 28.48 7.5 27.35 7.5 26.34C7.5 25.4 7.61 24.27 7.85 22.94L1.17 20.25C0.71 20.01 0.37 19.66 0.18 19.2C-0.02 18.73 -0.04 18.22 0.12 17.67L1.64 14.04C1.88 13.58 2.23 13.22 2.7 12.99C3.16 12.76 3.67 12.76 4.22 12.99L10.89 15.68C12.14 13.81 13.7 12.25 15.57 11L12.88 4.33C12.65 3.78 12.63 3.27 12.82 2.8C13.02 2.34 13.39 1.99 13.94 1.75L17.56 0.23C18.03 0 18.52 0 19.03 0.23C19.54 0.46 19.91 0.81 20.14 1.28L22.83 7.96C24.08 7.72 25.21 7.6 26.23 7.6C27.24 7.6 28.37 7.72 29.62 7.96L32.32 1.28C32.55 0.74 32.92 0.37 33.43 0.17C33.94 -0.02 34.42 0 34.89 0.23L38.52 1.75C39.07 1.91 39.44 2.24 39.63 2.75C39.83 3.25 39.81 3.74 39.57 4.21L36.88 10.88C38.75 12.21 40.35 13.81 41.68 15.68L48.24 12.87C48.78 12.72 49.31 12.74 49.82 12.93C50.33 13.13 50.66 13.46 50.81 13.93L52.34 17.56C52.57 18.1 52.59 18.63 52.39 19.14C52.2 19.64 51.83 19.98 51.28 20.13L44.61 22.94C44.84 24.19 44.96 25.32 44.96 26.34C44.96 27.35 44.84 28.48 44.61 29.73L51.28 32.42C51.83 32.66 52.2 33.01 52.39 33.48C52.59 33.95 52.57 34.45 52.34 35ZM26.29 15.1C23.2 15.1 20.55 16.19 18.33 18.38C16.1 20.56 14.99 23.21 14.99 26.34C14.99 29.46 16.1 32.11 18.33 34.3C20.55 36.48 23.2 37.58 26.29 37.58C29.37 37.58 32 36.48 34.19 34.3C36.37 32.11 37.47 29.46 37.47 26.34C37.47 23.21 36.37 20.56 34.19 18.38C32 16.19 29.37 15.1 26.29 15.1Z" fill-opacity="1.000000" fill-rule="nonzero"/></g></symbol><symbol viewBox="0 0 120 120" id="benefits-item3" xmlns="http://www.w3.org/2000/svg"><desc>Created with Pixso.</desc><defs><clipPath id="hclip219_177"><rect id="hicomoon-free:windows8" rx="0.000000" width="119.000000" height="119.000000" transform="translate(0.500000 0.500000)" fill-opacity="0"/></clipPath></defs><rect id="hicomoon-free:windows8" rx="0.000000" width="119.000000" height="119.000000" transform="translate(0.500000 0.500000)" fill-opacity="0"/><g clip-path="url(#hclip219_177)"><path id="hVector" d="M0.03 60L0 23.43L45 17.31L45 60L0.03 60ZM52.5 16.23L112.48 7.5L112.48 60L52.5 60L52.5 16.23ZM112.5 67.5L112.48 120L52.5 111.56L52.5 67.5L112.5 67.5ZM45 110.6L0.03 104.43L0.03 67.49L45 67.49L45 110.6Z" fill-opacity="1.000000" fill-rule="nonzero"/></g></symbol><symbol viewBox="0 0 100 100" id="benefits-item4" xmlns="http://www.w3.org/2000/svg"><desc>Created with Pixso.</desc><defs/><path id="iVector" d="M90.72 78.9L70.21 61.62C71.71 58.43 72.15 55.06 71.53 51.51C70.91 47.96 69.33 44.88 66.79 42.28L56.73 32.42C54.72 30.4 52.63 28.77 50.48 27.53C48.33 26.3 46.67 25.58 45.5 25.39L43.75 25C43.75 25.26 43.81 25.63 43.94 26.12C44.07 26.61 44.67 27.66 45.75 29.29C46.82 30.92 48.24 32.61 50 34.37L60.35 47.26C60.87 47.59 61.08 48.4 60.98 49.7C60.88 51 60.35 52.14 59.37 53.12L46.87 40.62C45.37 39.12 43.58 37.85 41.5 36.81C39.42 35.77 37.72 35.12 36.42 34.86L34.37 34.37C34.44 34.89 34.57 35.61 34.76 36.52C34.96 37.43 35.59 38.99 36.66 41.21C37.74 43.42 39.06 45.31 40.62 46.87L53.12 59.37C52.08 60.41 50.96 61 49.75 61.13C48.55 61.26 47.72 61 47.26 60.35L34.37 50C32.48 48.11 30.76 46.64 29.19 45.6C27.63 44.56 26.56 44.01 25.97 43.94L25 43.75C25.06 44.2 25.19 44.85 25.39 45.7C25.58 46.54 26.3 48.11 27.53 50.39C28.77 52.66 30.4 54.78 32.42 56.73L42.38 66.69C44.92 69.3 47.96 70.91 51.51 71.53C55.06 72.15 58.39 71.71 61.52 70.21L79 90.72C70.28 96.9 60.61 100 50 100C43.22 100 36.75 98.68 30.56 96.04C24.38 93.4 19.05 89.86 14.59 85.4C10.13 80.94 6.59 75.61 3.95 69.43C1.31 63.24 0 56.77 0 50C0 43.22 1.31 36.75 3.95 30.56C6.59 24.38 10.13 19.05 14.59 14.59C19.05 10.14 24.38 6.59 30.56 3.95C36.75 1.31 43.22 0 50 0C56.77 0 63.24 1.31 69.43 3.95C75.61 6.59 80.94 10.14 85.4 14.59C89.86 19.05 93.4 24.38 96.04 30.56C98.68 36.75 100 43.22 100 50C100 60.61 96.9 70.24 90.72 78.9Z" fill-opacity="1.000000" fill-rule="nonzero"/></symbol><symbol viewBox="0 0 120 120" id="benefits-item5" xmlns="http://www.w3.org/2000/svg"><desc>Created with Pixso.</desc><defs><clipPath id="jclip219_170"><rect id="jhealthicons:money-bag" rx="0.000000" width="119.000000" height="119.000000" transform="translate(0.500000 0.500000)" fill-opacity="0"/></clipPath></defs><rect id="jhealthicons:money-bag" rx="0.000000" width="119.000000" height="119.000000" transform="translate(0.500000 0.500000)" fill-opacity="0"/><g clip-path="url(#jclip219_170)"><path id="jVector" d="M60.09 15C48.8 15 38.51 18.73 32.42 21.77C31.87 22.05 31.36 22.32 30.88 22.58C29.94 23.09 29.13 23.57 28.5 24L35.42 34.19L38.68 35.49C51.42 41.92 68.51 41.92 81.25 35.49L84.95 33.57L91.5 24C90.14 23.11 88.73 22.31 87.27 21.6C81.22 18.59 71.17 15 60.09 15L60.09 15ZM43.99 26.54C41.54 26.08 39.11 25.47 36.74 24.72C42.44 22.18 50.93 19.5 60.09 19.5C66.43 19.5 72.43 20.79 77.39 22.42C71.58 23.24 65.38 24.63 59.47 26.33C54.82 27.68 49.38 27.53 43.99 26.54ZM83.89 39.2L83.27 39.5C69.26 46.58 50.67 46.58 36.65 39.5L36.07 39.21C15.02 62.31 -1.06 104.99 60.09 104.99C121.25 104.99 104.78 61.52 83.89 39.2ZM57.5 60C56.17 60 54.9 60.52 53.96 61.46C53.02 62.4 52.5 63.67 52.5 65C52.5 66.32 53.02 67.59 53.96 68.53C54.9 69.47 56.17 70 57.5 70L57.5 60ZM62.5 55L62.5 52.5L57.5 52.5L57.5 55C54.84 55 52.3 56.05 50.42 57.92C48.55 59.8 47.5 62.34 47.5 65C47.5 67.65 48.55 70.19 50.42 72.07C52.3 73.94 54.84 75 57.5 75L57.5 85C55.32 85 53.47 83.61 52.78 81.66C52.68 81.34 52.51 81.05 52.29 80.8C52.07 80.54 51.81 80.34 51.51 80.19C51.21 80.04 50.88 79.95 50.55 79.93C50.21 79.91 49.88 79.96 49.56 80.07C49.25 80.18 48.96 80.36 48.71 80.58C48.47 80.81 48.27 81.08 48.13 81.38C47.99 81.69 47.91 82.01 47.9 82.35C47.89 82.68 47.94 83.02 48.07 83.33C48.75 85.28 50.03 86.97 51.72 88.16C53.41 89.35 55.43 90 57.5 90L57.5 92.5L62.5 92.5L62.5 90C65.15 90 67.69 88.94 69.57 87.07C71.44 85.19 72.5 82.65 72.5 80C72.5 77.34 71.44 74.8 69.57 72.92C67.69 71.05 65.15 70 62.5 70L62.5 60C64.67 60 66.52 61.38 67.21 63.33C67.31 63.65 67.48 63.94 67.7 64.19C67.92 64.45 68.18 64.65 68.48 64.8C68.78 64.95 69.11 65.04 69.44 65.06C69.78 65.08 70.11 65.03 70.43 64.92C70.74 64.81 71.03 64.63 71.28 64.41C71.52 64.18 71.72 63.91 71.86 63.61C72 63.3 72.08 62.98 72.09 62.64C72.1 62.31 72.05 61.97 71.92 61.66C71.24 59.71 69.96 58.02 68.27 56.83C66.58 55.64 64.56 55 62.5 55ZM62.5 75L62.5 85C63.82 85 65.09 84.47 66.03 83.53C66.97 82.59 67.5 81.32 67.5 80C67.5 78.67 66.97 77.4 66.03 76.46C65.09 75.52 63.82 75 62.5 75Z" fill-opacity="1.000000" fill-rule="evenodd"/></g></symbol><symbol viewBox="0 0 120 120" id="benefits-item6" xmlns="http://www.w3.org/2000/svg"><desc>Created with Pixso.</desc><defs><clipPath id="kclip219_188"><rect id="kcarbon:fingerprint-recognition" rx="0.000000" width="119.000000" height="119.000000" transform="translate(0.500000 0.500000)" fill-opacity="0"/></clipPath></defs><rect id="kcarbon:fingerprint-recognition" rx="0.000000" width="119.000000" height="119.000000" transform="translate(0.500000 0.500000)" fill-opacity="0"/><g clip-path="url(#kclip219_188)"><path id="kVector" d="M26.25 19.53C25.65 19.52 25.06 19.33 24.58 18.98C24.09 18.62 23.73 18.13 23.54 17.56C23.35 16.99 23.35 16.38 23.52 15.8C23.7 15.23 24.05 14.72 24.52 14.36C34.87 7.04 47.33 3.31 60 3.74C69.97 3.74 84.3 5.43 95.62 13.57C96.24 14.01 96.66 14.69 96.78 15.44C96.91 16.19 96.74 16.96 96.3 17.58C95.84 18.2 95.16 18.61 94.4 18.73C93.64 18.85 92.87 18.67 92.25 18.22C82.63 12.11 71.38 9.06 60 9.48C48.63 9.1 37.44 12.41 28.12 18.93C27.59 19.35 26.92 19.57 26.25 19.53Z" fill-opacity="1.000000" fill-rule="nonzero"/><path id="kVector" d="M105.86 45.97C105.39 45.97 104.94 45.85 104.53 45.64C104.12 45.42 103.76 45.11 103.5 44.73C97.01 35.58 85.42 23.39 59.99 23.39C51.54 23.18 43.16 25.01 35.57 28.74C27.98 32.46 21.39 37.96 16.38 44.77C15.93 45.38 15.26 45.79 14.51 45.91C13.76 46.03 12.99 45.85 12.37 45.41C12.05 45.18 11.77 44.89 11.57 44.55C11.36 44.22 11.23 43.84 11.17 43.45C11.12 43.06 11.15 42.66 11.26 42.28C11.37 41.9 11.55 41.55 11.81 41.24C17.36 33.74 24.64 27.68 33.03 23.58C41.41 19.47 50.66 17.44 59.99 17.66C81.03 17.66 96.78 25.46 108.15 41.43C108.58 42.06 108.75 42.83 108.62 43.59C108.48 44.34 108.06 45.01 107.43 45.44C106.97 45.77 106.42 45.95 105.86 45.97Z" fill-opacity="1.000000" fill-rule="nonzero"/><path id="kVector" d="M46.04 116.25C45.46 116.24 44.9 116.07 44.41 115.74C43.93 115.41 43.56 114.95 43.34 114.41C43.2 114.05 43.12 113.67 43.12 113.29C43.12 112.91 43.21 112.53 43.36 112.18C43.51 111.83 43.74 111.51 44.02 111.25C44.3 110.99 44.63 110.79 44.99 110.66C61.38 104.36 71.24 91.46 71.24 76.12C71.36 74.61 71.14 73.1 70.62 71.69C70.09 70.27 69.27 68.98 68.2 67.92C67.13 66.85 65.84 66.02 64.43 65.5C63.01 64.97 61.5 64.76 59.99 64.87C53.02 64.87 49.64 68.62 48.74 77.43C48.33 81.55 46.33 85.35 43.17 88.03C40 90.71 35.93 92.06 31.79 91.8C29.57 91.83 27.37 91.4 25.32 90.53C23.27 89.66 21.43 88.38 19.9 86.76C18.38 85.14 17.21 83.22 16.47 81.12C15.72 79.03 15.43 76.8 15.59 74.58C15.8 62.99 20.59 51.95 28.91 43.87C37.22 35.79 48.4 31.33 59.99 31.46C71.88 31.46 83.29 36.16 91.72 44.54C100.15 52.93 104.93 64.31 105 76.19C104.73 84.57 102.97 92.82 99.78 100.57C99.48 101.26 98.92 101.81 98.22 102.09C97.52 102.38 96.74 102.39 96.03 102.11C95.68 101.96 95.37 101.75 95.1 101.49C94.83 101.22 94.62 100.9 94.48 100.55C94.34 100.21 94.27 99.83 94.27 99.45C94.27 99.08 94.35 98.7 94.49 98.36C97.37 91.31 98.99 83.81 99.26 76.19C99.21 65.82 95.05 55.89 87.69 48.58C80.33 41.27 70.37 37.18 59.99 37.2C54.98 37.1 49.99 37.99 45.31 39.82C40.64 41.65 36.37 44.39 32.75 47.87C29.14 51.35 26.24 55.52 24.24 60.12C22.23 64.72 21.16 69.68 21.07 74.69C20.92 76.15 21.07 77.63 21.53 79.02C21.99 80.42 22.74 81.7 23.72 82.78C24.71 83.87 25.92 84.73 27.27 85.31C28.61 85.9 30.07 86.19 31.53 86.17C32.88 86.3 34.25 86.17 35.54 85.77C36.84 85.38 38.05 84.73 39.1 83.86C40.14 83 41.01 81.94 41.64 80.74C42.27 79.54 42.66 78.22 42.78 76.87C44.13 65.21 49.87 59.28 59.88 59.28C62.15 59.17 64.42 59.53 66.54 60.35C68.66 61.17 70.58 62.43 72.18 64.05C73.78 65.66 75.02 67.59 75.82 69.72C76.62 71.84 76.97 74.11 76.83 76.38C76.83 94.16 65.58 109.08 46.83 116.25C46.57 116.28 46.31 116.28 46.04 116.25Z" fill-opacity="1.000000" fill-rule="nonzero"/><path id="kVector" d="M74.13 113.55C73.41 113.53 72.72 113.27 72.18 112.8C71.91 112.53 71.7 112.22 71.56 111.87C71.41 111.52 71.34 111.15 71.34 110.77C71.34 110.39 71.41 110.02 71.56 109.67C71.7 109.33 71.91 109.01 72.18 108.75C80.62 100 85.37 88.35 85.46 76.2C85.46 70.35 83.66 51.26 60.33 51.26C56.93 51.14 53.55 51.7 50.36 52.9C47.18 54.1 44.27 55.93 41.81 58.27C39.6 60.45 37.85 63.06 36.67 65.93C35.5 68.81 34.91 71.89 34.94 75C34.93 75.75 34.63 76.48 34.09 77.01C33.55 77.55 32.82 77.85 32.06 77.85C31.68 77.85 31.31 77.78 30.96 77.64C30.6 77.5 30.29 77.29 30.02 77.02C29.75 76.76 29.54 76.44 29.39 76.09C29.24 75.75 29.17 75.37 29.17 75C29.11 71.15 29.82 67.34 31.25 63.77C32.68 60.21 34.8 56.96 37.49 54.22C40.48 51.35 44.01 49.11 47.87 47.61C51.73 46.12 55.86 45.41 59.99 45.52C82.79 45.52 90.89 62.02 90.89 76.2C90.85 89.72 85.61 102.71 76.27 112.5C76.01 112.82 75.69 113.08 75.32 113.26C74.95 113.44 74.54 113.54 74.13 113.55Z" fill-opacity="1.000000" fill-rule="nonzero"/><path id="kVector" d="M32.47 104.02C30.52 104.02 28.56 103.9 26.62 103.68C26.24 103.65 25.87 103.54 25.53 103.36C25.19 103.18 24.89 102.94 24.65 102.64C24.4 102.35 24.22 102.01 24.11 101.64C24 101.27 23.97 100.89 24.01 100.51C24.06 100.13 24.17 99.76 24.36 99.42C24.55 99.09 24.8 98.79 25.1 98.56C25.41 98.32 25.75 98.15 26.12 98.05C26.49 97.95 26.88 97.93 27.26 97.98C36.6 99.03 43.95 97.38 49.16 93.03C51.56 90.88 53.5 88.27 54.87 85.35C56.24 82.43 57 79.27 57.11 76.05C57.13 75.67 57.22 75.29 57.39 74.95C57.55 74.61 57.79 74.31 58.08 74.06C58.36 73.81 58.7 73.62 59.06 73.5C59.42 73.39 59.8 73.35 60.18 73.38C60.94 73.44 61.64 73.79 62.15 74.36C62.65 74.92 62.91 75.66 62.88 76.42C62.72 80.43 61.75 84.37 60.02 87.99C58.3 91.61 55.85 94.85 52.83 97.5C47.04 102.04 39.82 104.35 32.47 104.02Z" fill-opacity="1.000000" fill-rule="nonzero"/></g></symbol><symbol viewBox="0 0 40 40" id="buy-item" xmlns="http://www.w3.org/2000/svg"><desc>Created with Pixso.</desc><defs><clipPath id="lclip219_246"><rect id="lclarity:rack-server-solid" rx="0.000000" width="39.000000" height="39.000000" transform="translate(0.500000 0.500000)" fill-opacity="0"/></clipPath></defs><rect id="lclarity:rack-server-solid" rx="0.000000" width="39.000000" height="39.000000" transform="translate(0.500000 0.500000)" fill-opacity="0"/><g clip-path="url(#lclip219_246)"><path id="lVector" d="M2.22 24.44L37.77 24.44L37.77 15.55L2.22 15.55L2.22 24.44ZM11.11 18.88L26.66 18.88L26.66 21.11L11.11 21.11L11.11 18.88ZM6.66 18.88L8.88 18.88L8.88 21.11L6.66 21.11L6.66 18.88Z" fill-opacity="1.000000" fill-rule="nonzero"/><path id="lVector" d="M35.55 4.44L4.44 4.44C3.85 4.44 3.28 4.67 2.87 5.09C2.45 5.51 2.22 6.07 2.22 6.66L2.22 13.33L37.77 13.33L37.77 6.66C37.77 6.07 37.54 5.51 37.12 5.09C36.71 4.67 36.14 4.44 35.55 4.44ZM8.88 10L6.66 10L6.66 7.77L8.88 7.77L8.88 10ZM26.66 10L11.11 10L11.11 7.77L26.66 7.77L26.66 10Z" fill-opacity="1.000000" fill-rule="nonzero"/><path id="lVector" d="M2.22 33.33C2.22 33.92 2.45 34.48 2.87 34.9C3.28 35.32 3.85 35.55 4.44 35.55L35.55 35.55C36.14 35.55 36.71 35.32 37.12 34.9C37.54 34.48 37.77 33.92 37.77 33.33L37.77 26.66L2.22 26.66L2.22 33.33ZM11.11 30L26.66 30L26.66 32.22L11.11 32.22L11.11 30ZM6.66 30L8.88 30L8.88 32.22L6.66 32.22L6.66 30Z" fill-opacity="1.000000" fill-rule="nonzero"/></g></symbol><symbol viewBox="0 0 25 22" id="cart" xmlns="http://www.w3.org/2000/svg"><desc>Created with Pixso.</desc><defs><clipPath id="mclip219_272"><rect id="mfa-solid:cart-arrow-down" rx="0.000000" width="24.000000" height="21.000000" transform="translate(0.500000 0.500000)" fill-opacity="0"/></clipPath></defs><rect id="mfa-solid:cart-arrow-down" rx="0.000000" width="24.000000" height="21.000000" transform="translate(0.500000 0.500000)" fill-opacity="0"/><g clip-path="url(#mclip219_272)"><path id="mVector" d="M21.9 13.75L9.18 13.75L9.46 15.12L21.11 15.12C21.78 15.12 22.28 15.73 22.13 16.38L21.89 17.42C22.7 17.81 23.26 18.64 23.26 19.59C23.26 20.93 22.15 22.01 20.79 21.99C19.5 21.98 18.43 20.94 18.4 19.66C18.38 18.96 18.66 18.32 19.13 17.87L10.03 17.87C10.48 18.31 10.76 18.92 10.76 19.59C10.76 20.96 9.61 22.06 8.21 21.99C6.97 21.94 5.97 20.94 5.9 19.72C5.85 18.77 6.35 17.94 7.12 17.5L4.07 2.75L1.04 2.75C0.46 2.75 0 2.28 0 1.71L0 1.03C0 0.46 0.46 0 1.04 0L5.49 0C5.98 0 6.41 0.34 6.51 0.82L6.91 2.75L23.95 2.75C24.62 2.75 25.12 3.36 24.97 4L22.92 12.94C22.81 13.41 22.39 13.75 21.9 13.75ZM17.49 8.25L15.62 8.25L15.62 5.67C15.62 5.38 15.39 5.15 15.1 5.15L14.06 5.15C13.77 5.15 13.54 5.38 13.54 5.67L13.54 8.25L11.67 8.25C11.21 8.25 10.97 8.8 11.3 9.13L14.21 12.01C14.41 12.21 14.74 12.21 14.95 12.01L17.86 9.13C18.18 8.8 17.95 8.25 17.49 8.25Z" fill-opacity="1.000000" fill-rule="nonzero"/></g></symbol><symbol viewBox="0 0 25 25" id="mail" xmlns="http://www.w3.org/2000/svg"><desc>Created with Pixso.</desc><defs><clipPath id="nclip219_368"><rect id="nuiw:mail-o" rx="0.000000" width="24.000000" height="24.000000" transform="translate(0.500000 0.500000)" fill-opacity="0"/></clipPath></defs><rect id="nuiw:mail-o" rx="0.000000" width="24.000000" height="24.000000" transform="translate(0.500000 0.500000)" fill-opacity="0"/><g clip-path="url(#nclip219_368)"><path id="nVector" d="M22.91 3.12C24.06 3.12 25 4.05 25 5.2L25 19.79C25 20.94 24.06 21.87 22.91 21.87L2.08 21.87C0.93 21.87 0 20.94 0 19.79L0 5.2C0 4.05 0.93 3.12 2.08 3.12L22.91 3.12ZM8.95 14.16L2.82 20.22L21.97 20.22L15.9 14.22L12.5 16.58L8.95 14.16ZM23.3 9.11L17.3 13.25L23.3 19.18L23.3 9.11ZM1.7 9.19L1.7 18.98L7.55 13.19L1.7 9.19ZM22.89 4.77L2.12 4.77C2 4.77 1.89 4.8 1.81 4.88C1.77 4.91 1.74 4.96 1.72 5C1.7 5.05 1.69 5.1 1.7 5.16L1.7 7.18L12.5 14.56L23.3 7.11L23.3 5.24C23.3 5.08 23.26 4.95 23.18 4.88C23.15 4.84 23.1 4.81 23.05 4.79C23 4.78 22.95 4.77 22.89 4.77L22.89 4.77Z" fill-opacity="1.000000" fill-rule="evenodd"/></g></symbol><symbol viewBox="0 0 100 100" id="promo-item1" xmlns="http://www.w3.org/2000/svg"><desc>Created with Pixso.</desc><defs><clipPath id="oclip219_127"><rect rx="0.000000" width="99.000000" height="99.000000" transform="translate(0.500000 0.500000)" fill-opacity="0"/></clipPath></defs><rect rx="0.000000" width="99.000000" height="99.000000" transform="translate(0.500000 0.500000)" fill-opacity="0"/><g clip-path="url(#oclip219_127)"><path d="M40.82 12.5C38.08 12.5 35.68 13.9 33.98 15.72C32.28 17.54 31.06 19.81 29.98 22.26C28.32 26.04 27.13 30.25 26.07 34.18C22.68 35.16 19.79 36.4 17.48 37.89C14.77 39.63 12.5 42.05 12.5 45.31C12.5 48.14 14.23 50.41 16.4 52.05C18.26 53.44 20.54 54.6 23.24 55.56C23.39 56.28 23.63 57.01 23.92 57.71C21.29 59.2 17.11 62.08 13.08 67.57L11.23 70.21L13.86 72.06L24.11 79.1L19.92 87.5L80.08 87.5L75.88 79.1L86.13 72.06L88.77 70.21L86.91 67.57C82.88 62.08 78.71 59.2 76.07 57.71C76.37 57.01 76.6 56.28 76.76 55.56C79.45 54.6 81.74 53.44 83.59 52.05C85.76 50.41 87.5 48.14 87.5 45.31C87.5 42.05 85.23 39.63 82.52 37.89C80.2 36.4 77.32 35.16 73.92 34.17C72.75 30.1 71.46 25.83 69.82 22.07C68.76 19.64 67.59 17.4 65.92 15.62C64.25 13.84 61.86 12.5 59.18 12.5C57.36 12.5 55.98 13 54.49 13.37C53 13.75 51.5 14.06 50 14.06C47 14.06 44.48 12.5 40.82 12.5ZM40.82 18.75C41.46 18.75 45.31 20.31 50 20.31C52.34 20.31 54.43 19.83 56.05 19.43C57.67 19.02 58.91 18.75 59.18 18.75C59.89 18.75 60.43 18.98 61.32 19.92C62.21 20.85 63.26 22.55 64.15 24.6C65.85 28.49 67.14 33.79 68.55 38.67C68.55 38.65 68.72 38.52 68.26 38.76C67.48 39.19 65.84 39.74 63.86 40.03C59.89 40.63 54.49 40.62 50 40.62C45.53 40.62 40.11 40.56 36.13 39.94C34.14 39.63 32.53 39.09 31.73 38.67C31.49 38.53 31.4 38.58 31.34 38.57L31.34 38.47C31.35 38.45 31.33 38.4 31.34 38.37L31.44 38.28C31.67 37.86 31.81 37.39 31.83 36.91L31.83 36.81C32.95 32.66 34.21 28.27 35.74 24.8C36.65 22.71 37.64 21.02 38.57 20.02C39.5 19.01 40.13 18.75 40.82 18.75ZM25.58 40.91C26.29 42.38 27.54 43.55 28.8 44.23C30.71 45.25 32.89 45.72 35.25 46.09C39.96 46.82 45.48 46.87 50 46.87C54.49 46.87 60.02 46.9 64.74 46.19C67.11 45.83 69.27 45.37 71.19 44.33C72.47 43.64 73.71 42.4 74.41 40.91C76.34 41.6 77.96 42.33 79.1 43.06C80.92 44.23 81.25 45.1 81.25 45.31C81.25 45.49 81.09 46.09 79.78 47.07C78.47 48.04 76.23 49.18 73.34 50.09C67.55 51.94 59.22 53.12 50 53.12C40.77 53.12 32.44 51.94 26.65 50.09C23.76 49.18 21.52 48.04 20.21 47.07C18.9 46.09 18.75 45.49 18.75 45.31C18.75 45.1 18.99 44.32 20.8 43.16C21.93 42.43 23.6 41.63 25.58 40.91L25.58 40.91ZM33.69 58C34.71 58.17 35.73 58.45 36.81 58.59C37.22 61.34 39.35 63.75 42.77 63.96C45.4 64.12 48.37 62.87 48.63 59.37L51.36 59.37C51.62 62.87 54.58 64.12 57.22 63.96C60.64 63.75 62.78 61.34 63.18 58.59C64.26 58.45 65.28 58.17 66.3 58L66.01 59.95C65.05 65.1 62.75 69.85 59.86 73.14C56.96 76.42 53.57 78.17 50 78.12C46.32 78.07 43 76.3 40.13 73.04C37.26 69.78 35.01 65.12 33.98 59.95L33.69 58ZM71.87 62.5C73.03 63.18 76.08 65.18 79.59 69.04L70.11 75.58L67.87 77.05L69.04 79.49L69.92 81.25L60.05 81.25C61.72 80.11 63.23 78.76 64.55 77.24C67.99 73.34 70.3 68.22 71.58 62.69C71.69 62.63 71.77 62.56 71.87 62.5ZM28.02 62.59C28.14 62.67 28.29 62.72 28.41 62.79C29.76 68.25 32.05 73.3 35.45 77.14C36.85 78.74 38.48 80.11 40.23 81.25L30.07 81.25L30.95 79.49L32.12 77.05L29.88 75.58L20.41 69.04C23.71 65.39 26.73 63.37 28.02 62.59Z" fill-opacity="1.000000" fill-rule="nonzero"/></g></symbol><symbol viewBox="0 0 100 100" id="promo-item2" xmlns="http://www.w3.org/2000/svg"><desc>Created with Pixso.</desc><defs><clipPath id="pclip219_131"><rect rx="0.000000" width="99.000000" height="99.000000" transform="translate(0.500000 0.500000)" fill-opacity="0"/></clipPath></defs><rect rx="0.000000" width="99.000000" height="99.000000" transform="translate(0.500000 0.500000)" fill-opacity="0"/><g clip-path="url(#pclip219_131)"><path d="M87.5 45.83C87.5 68.95 71.5 90.58 50 95.83C28.5 90.58 12.5 68.95 12.5 45.83L12.5 20.83L50 4.16L87.5 20.83L87.5 45.83ZM50 87.5C65.62 83.33 79.16 64.75 79.16 46.75L79.16 26.25L50 13.25L20.83 26.25L20.83 46.75C20.83 64.75 34.37 83.33 50 87.5ZM41.66 70.83L25 54.16L30.87 48.29L41.66 59.04L69.12 31.58L75 37.5L41.66 70.83Z" fill-opacity="1.000000" fill-rule="nonzero"/></g></symbol><symbol viewBox="0 0 90 90" id="promo-item3" xmlns="http://www.w3.org/2000/svg"><desc>Created with Pixso.</desc><defs><clipPath id="qclip219_135"><rect rx="0.000000" width="89.000000" height="89.000000" transform="translate(0.500000 0.500000)" fill-opacity="0"/></clipPath></defs><rect rx="0.000000" width="89.000000" height="89.000000" transform="translate(0.500000 0.500000)" fill-opacity="0"/><g clip-path="url(#qclip219_135)"><path d="M77.27 0L36.01 0L9.73 45L36.01 45L13.51 90L73.51 33.75L43.5 33.75L77.27 0Z" fill-opacity="1.000000" fill-rule="nonzero"/></g></symbol><symbol viewBox="0 0 45 45" id="server" xmlns="http://www.w3.org/2000/svg"><desc>Created with Pixso.</desc><defs><clipPath id="rclip219_143"><rect rx="0.000000" width="44.000000" height="44.000000" transform="translate(0.500000 0.500000)" fill-opacity="0"/></clipPath></defs><rect rx="0.000000" width="44.000000" height="44.000000" transform="translate(0.500000 0.500000)" fill-opacity="0"/><g clip-path="url(#rclip219_143)"><path d="M28.12 31.87C27.75 31.87 27.39 31.98 27.08 32.19C26.77 32.39 26.53 32.68 26.39 33.03C26.25 33.37 26.21 33.75 26.28 34.11C26.35 34.47 26.53 34.81 26.79 35.07C27.06 35.33 27.39 35.51 27.75 35.58C28.12 35.66 28.5 35.62 28.84 35.48C29.18 35.34 29.47 35.09 29.68 34.79C29.89 34.48 30 34.12 30 33.75C30 33.25 29.8 32.77 29.45 32.42C29.09 32.07 28.62 31.87 28.12 31.87ZM16.87 31.87L11.25 31.87C10.75 31.87 10.27 32.07 9.92 32.42C9.57 32.77 9.37 33.25 9.37 33.75C9.37 34.24 9.57 34.72 9.92 35.07C10.27 35.42 10.75 35.62 11.25 35.62L16.87 35.62C17.37 35.62 17.84 35.42 18.2 35.07C18.55 34.72 18.75 34.24 18.75 33.75C18.75 33.25 18.55 32.77 18.2 32.42C17.84 32.07 17.37 31.87 16.87 31.87ZM33.75 31.87C33.37 31.87 33.01 31.98 32.7 32.19C32.39 32.39 32.15 32.68 32.01 33.03C31.87 33.37 31.83 33.75 31.91 34.11C31.98 34.47 32.16 34.81 32.42 35.07C32.68 35.33 33.02 35.51 33.38 35.58C33.74 35.66 34.12 35.62 34.46 35.48C34.81 35.34 35.1 35.09 35.3 34.79C35.51 34.48 35.62 34.12 35.62 33.75C35.62 33.25 35.42 32.77 35.07 32.42C34.72 32.07 34.24 31.87 33.75 31.87ZM28.12 20.62C27.75 20.62 27.39 20.73 27.08 20.94C26.77 21.14 26.53 21.43 26.39 21.78C26.25 22.12 26.21 22.5 26.28 22.86C26.35 23.22 26.53 23.56 26.79 23.82C27.06 24.08 27.39 24.26 27.75 24.33C28.12 24.41 28.5 24.37 28.84 24.23C29.18 24.09 29.47 23.85 29.68 23.54C29.89 23.23 30 22.87 30 22.5C30 22 29.8 21.52 29.45 21.17C29.09 20.82 28.62 20.62 28.12 20.62ZM16.87 20.62L11.25 20.62C10.75 20.62 10.27 20.82 9.92 21.17C9.57 21.52 9.37 22 9.37 22.5C9.37 22.99 9.57 23.47 9.92 23.82C10.27 24.17 10.75 24.37 11.25 24.37L16.87 24.37C17.37 24.37 17.84 24.17 18.2 23.82C18.55 23.47 18.75 22.99 18.75 22.5C18.75 22 18.55 21.52 18.2 21.17C17.84 20.82 17.37 20.62 16.87 20.62ZM33.75 9.37C33.37 9.37 33.01 9.48 32.7 9.69C32.39 9.89 32.15 10.18 32.01 10.53C31.87 10.87 31.83 11.25 31.91 11.61C31.98 11.97 32.16 12.31 32.42 12.57C32.68 12.83 33.02 13.01 33.38 13.08C33.74 13.16 34.12 13.12 34.46 12.98C34.81 12.84 35.1 12.6 35.3 12.29C35.51 11.98 35.62 11.62 35.62 11.25C35.62 10.75 35.42 10.27 35.07 9.92C34.72 9.57 34.24 9.37 33.75 9.37ZM33.75 20.62C33.37 20.62 33.01 20.73 32.7 20.94C32.39 21.14 32.15 21.43 32.01 21.78C31.87 22.12 31.83 22.5 31.91 22.86C31.98 23.22 32.16 23.56 32.42 23.82C32.68 24.08 33.02 24.26 33.38 24.33C33.74 24.41 34.12 24.37 34.46 24.23C34.81 24.09 35.1 23.85 35.3 23.54C35.51 23.23 35.62 22.87 35.62 22.5C35.62 22 35.42 21.52 35.07 21.17C34.72 20.82 34.24 20.62 33.75 20.62ZM41.25 9.37C41.25 7.88 40.65 6.45 39.6 5.39C38.54 4.34 37.11 3.75 35.62 3.75L9.37 3.75C7.88 3.75 6.45 4.34 5.39 5.39C4.34 6.45 3.75 7.88 3.75 9.37L3.75 13.12C3.75 14.51 4.27 15.84 5.21 16.87C4.27 17.9 3.75 19.23 3.75 20.62L3.75 24.37C3.75 25.76 4.27 27.09 5.21 28.12C4.27 29.15 3.75 30.48 3.75 31.87L3.75 35.62C3.75 37.11 4.34 38.54 5.39 39.6C6.45 40.65 7.88 41.25 9.37 41.25L35.62 41.25C37.11 41.25 38.54 40.65 39.6 39.6C40.65 38.54 41.25 37.11 41.25 35.62L41.25 31.87C41.24 30.48 40.72 29.15 39.78 28.12C40.72 27.09 41.24 25.76 41.25 24.37L41.25 20.62C41.24 19.23 40.72 17.9 39.78 16.87C40.72 15.84 41.24 14.51 41.25 13.12L41.25 9.37ZM37.5 35.62C37.5 36.12 37.3 36.59 36.95 36.95C36.59 37.3 36.12 37.5 35.62 37.5L9.37 37.5C8.87 37.5 8.4 37.3 8.04 36.95C7.69 36.59 7.5 36.12 7.5 35.62L7.5 31.87C7.5 31.37 7.69 30.9 8.04 30.54C8.4 30.19 8.87 30 9.37 30L35.62 30C36.12 30 36.59 30.19 36.95 30.54C37.3 30.9 37.5 31.37 37.5 31.87L37.5 35.62ZM37.5 24.37C37.5 24.87 37.3 25.34 36.95 25.7C36.59 26.05 36.12 26.25 35.62 26.25L9.37 26.25C8.87 26.25 8.4 26.05 8.04 25.7C7.69 25.34 7.5 24.87 7.5 24.37L7.5 20.62C7.5 20.12 7.69 19.65 8.04 19.29C8.4 18.94 8.87 18.75 9.37 18.75L35.62 18.75C36.12 18.75 36.59 18.94 36.95 19.29C37.3 19.65 37.5 20.12 37.5 20.62L37.5 24.37ZM37.5 13.12C37.5 13.62 37.3 14.09 36.95 14.45C36.59 14.8 36.12 15 35.62 15L9.37 15C8.87 15 8.4 14.8 8.04 14.45C7.69 14.09 7.5 13.62 7.5 13.12L7.5 9.37C7.5 8.87 7.69 8.4 8.04 8.04C8.4 7.69 8.87 7.5 9.37 7.5L35.62 7.5C36.12 7.5 36.59 7.69 36.95 8.04C37.3 8.4 37.5 8.87 37.5 9.37L37.5 13.12ZM28.12 9.37C27.75 9.37 27.39 9.48 27.08 9.69C26.77 9.89 26.53 10.18 26.39 10.53C26.25 10.87 26.21 11.25 26.28 11.61C26.35 11.97 26.53 12.31 26.79 12.57C27.06 12.83 27.39 13.01 27.75 13.08C28.12 13.16 28.5 13.12 28.84 12.98C29.18 12.84 29.47 12.6 29.68 12.29C29.89 11.98 30 11.62 30 11.25C30 10.75 29.8 10.27 29.45 9.92C29.09 9.57 28.62 9.37 28.12 9.37ZM16.87 9.37L11.25 9.37C10.75 9.37 10.27 9.57 9.92 9.92C9.57 10.27 9.37 10.75 9.37 11.25C9.37 11.74 9.57 12.22 9.92 12.57C10.27 12.92 10.75 13.12 11.25 13.12L16.87 13.12C17.37 13.12 17.84 12.92 18.2 12.57C18.55 12.22 18.75 11.74 18.75 11.25C18.75 10.75 18.55 10.27 18.2 9.92C17.84 9.57 17.37 9.37 16.87 9.37Z" fill-opacity="1.000000" fill-rule="nonzero"/></g></symbol></svg>