<?xml version="1.0" encoding="utf-8"?><svg viewBox="0 0 120 120" xmlns="http://www.w3.org/2000/svg" xmlns:xlink="http://www.w3.org/1999/xlink"><style>:root>svg{display:none}:root>svg:target{display:block}</style><svg fill="none" viewBox="0 0 70 70" id="about-item1" xmlns="http://www.w3.org/2000/svg"><defs><clipPath id="aa"><rect rx="0" width="69" height="69" transform="translate(.5 .5)" fill="#fff" fill-opacity="0"/></clipPath></defs><rect rx="0" width="69" height="69" transform="translate(.5 .5)" fill="none"/><g clip-path="url(#aa)"><path d="M35 5.83C18.91 5.83 5.83 18.91 5.83 35v12.08c0 2.99 2.61 5.42 5.83 5.42h2.92c.77 0 1.51-.31 2.06-.86s.86-1.29.86-2.06v-15c0-.78-.31-1.52-.86-2.06-.55-.55-1.29-.86-2.06-.86h-2.65c1.62-11.29 11.33-20 23.07-20 11.73 0 21.44 8.71 23.06 20h-2.65c-.77 0-1.51.31-2.06.86-.55.54-.85 1.28-.85 2.06V52.5c0 3.21-2.62 5.83-5.84 5.83h-5.83v-2.92H29.16v8.75h17.5c6.44 0 11.67-5.23 11.67-11.66 3.22 0 5.83-2.43 5.83-5.42V35C64.16 18.91 51.08 5.83 35 5.83Z" fill="#FFF"/></g></svg><svg fill="none" viewBox="0 0 70 70" id="about-item2" xmlns="http://www.w3.org/2000/svg"><defs><clipPath id="ba"><rect rx="0" width="69" height="69" transform="translate(.5 .5)" fill="#fff" fill-opacity="0"/></clipPath></defs><rect rx="0" width="69" height="69" transform="translate(.5 .5)" fill="none"/><g clip-path="url(#ba)"><path d="M35 32.08a14.578 14.578 0 0 1 14.58 14.58v17.5H20.41v-17.5c0-3.87 1.54-7.58 4.27-10.31 2.74-2.74 6.45-4.27 10.32-4.27Zm-19.58 8.77c-.47 1.56-.74 3.18-.82 4.81l-.02 1v17.5H5.83V51.04c0-2.52.93-4.95 2.6-6.82 1.68-1.87 3.99-3.06 6.5-3.33l.49-.04Zm39.15 0c2.6.15 5.03 1.3 6.82 3.19 1.78 1.89 2.77 4.4 2.77 7v13.12h-8.75v-17.5c0-2.02-.29-3.97-.84-5.81ZM16.04 23.33c1.93 0 3.79.77 5.15 2.13a7.306 7.306 0 0 1 2.14 5.16c0 1.93-.77 3.79-2.14 5.16a7.297 7.297 0 0 1-5.15 2.13 7.32 7.32 0 0 1-5.16-2.13 7.296 7.296 0 0 1-2.13-5.16c0-1.93.76-3.79 2.13-5.16a7.32 7.32 0 0 1 5.16-2.13Zm37.91 0c1.94 0 3.79.77 5.16 2.13a7.306 7.306 0 0 1 2.14 5.16c0 1.93-.77 3.79-2.14 5.16a7.32 7.32 0 0 1-5.16 2.13c-1.93 0-3.79-.77-5.15-2.13a7.306 7.306 0 0 1-2.14-5.16c0-1.93.77-3.79 2.14-5.16a7.297 7.297 0 0 1 5.15-2.13ZM35 5.83c3.09 0 6.06 1.23 8.24 3.42 2.19 2.18 3.42 5.15 3.42 8.25 0 3.09-1.23 6.06-3.42 8.24A11.632 11.632 0 0 1 35 29.16c-3.1 0-6.07-1.23-8.25-3.42a11.632 11.632 0 0 1-3.42-8.24c0-3.1 1.23-6.07 3.42-8.25C28.93 7.06 31.9 5.83 35 5.83Z" fill="#FFF"/></g></svg><svg fill="none" viewBox="0 0 70 70" id="about-item3" xmlns="http://www.w3.org/2000/svg"><defs><clipPath id="ca"><rect rx="0" width="69" height="69" transform="translate(.5 .5)" fill="#fff" fill-opacity="0"/></clipPath></defs><rect rx="0" width="69" height="69" transform="translate(.5 .5)" fill="none"/><g clip-path="url(#ca)" fill="#FFF"><path d="M45.34 18.91c0 6.94-5.62 12.57-12.56 12.57s-12.56-5.63-12.56-12.57c0-6.93 5.62-12.56 12.56-12.56s12.56 5.63 12.56 12.56Z" fill-rule="evenodd"/><path d="M40.83 54.44h13.61v2.72H40.83v-2.72Z"/><path d="M29.16 58.33v5.83c0 .52.21 1.01.57 1.38.37.36.86.57 1.38.57h33.05c.52 0 1.01-.21 1.38-.57.36-.37.57-.86.57-1.38V44.72c0-.52-.21-1.01-.57-1.38-.37-.36-.86-.57-1.38-.57H50.55v-2.86c0-.51-.2-1.01-.57-1.37-.36-.37-.86-.57-1.37-.57-.52 0-1.01.2-1.38.57-.36.36-.57.86-.57 1.37v2.86h-3.89v-6.96c-3.3-.54-6.64-.81-9.99-.81a50.423 50.423 0 0 0-21.39 4.64c-1.1.52-2.04 1.35-2.68 2.38a6.43 6.43 0 0 0-.98 3.46v12.85h21.43Zm33.06 3.89H33.05V46.66h13.61v.82c0 .51.21 1.01.57 1.37.37.37.86.57 1.38.57.51 0 1.01-.2 1.37-.57.37-.36.57-.86.57-1.37v-.82h11.67v15.56Z"/></g></svg><svg fill="none" viewBox="0 0 70 70" id="about-item4" xmlns="http://www.w3.org/2000/svg"><defs><clipPath id="da"><rect rx="0" width="69" height="69" transform="translate(.5 .5)" fill="#fff" fill-opacity="0"/></clipPath></defs><rect rx="0" width="69" height="69" transform="translate(.5 .5)" fill="none"/><g clip-path="url(#da)"><path d="M50.55 26.25c0-12.09-11.32-21.88-25.28-21.88S0 14.16 0 26.25c0 4.68 1.71 9.01 4.61 12.57C2.99 42.95.3 46.23.26 46.27c-.13.16-.22.35-.25.56-.03.22-.01.43.06.63.08.19.2.36.36.48.16.12.35.18.54.18 4.44 0 8.13-1.67 10.78-3.42 3.91 2.16 8.54 3.42 13.52 3.42 13.96 0 25.28-9.79 25.28-21.87ZM23.33 39.37v-2.23c-1.37-.08-2.71-.62-3.81-1.55-.48-.4-.5-1.2-.07-1.66l1.42-1.53c.34-.36.84-.38 1.24-.1.47.33 1 .51 1.55.51h3.42c.79 0 1.43-.81 1.43-1.81 0-.81-.43-1.53-1.06-1.74l-5.47-1.84c-2.26-.76-3.84-3.2-3.84-5.93 0-3.36 2.32-6.08 5.19-6.17v-2.2c0-.6.43-1.09.97-1.09h1.94c.54 0 .98.49.98 1.09v2.23c1.37.08 2.7.61 3.81 1.55.47.4.5 1.2.07 1.66l-1.43 1.53c-.34.36-.84.38-1.23.1-.47-.33-1.01-.51-1.56-.51h-3.42c-.79 0-1.43.81-1.43 1.81 0 .81.44 1.53 1.07 1.74l5.47 1.84c2.25.76 3.83 3.2 3.83 5.93 0 3.36-2.31 6.08-5.18 6.17v2.2c0 .6-.44 1.09-.97 1.09H24.3c-.54 0-.97-.49-.97-1.09Zm42.05 16.95c2.9-3.56 4.62-7.89 4.62-12.57 0-9.16-6.51-16.99-15.72-20.25.1.9.16 1.82.16 2.75 0 14.47-13.08 26.25-29.17 26.25-1.31 0-2.59-.11-3.85-.26 3.83 7.86 12.82 13.38 23.3 13.38 4.98 0 9.61-1.26 13.52-3.42 2.65 1.75 6.34 3.42 10.78 3.42.39 0 .74-.26.89-.66.16-.4.09-.87-.18-1.19-.04-.04-2.73-3.31-4.35-7.45Z" fill="#FFF"/></g></svg><svg fill="none" viewBox="0 0 70 70" id="about-item5" xmlns="http://www.w3.org/2000/svg"><defs><clipPath id="ea"><rect rx="0" width="69" height="69" transform="translate(.5 .5)" fill="#fff" fill-opacity="0"/></clipPath></defs><rect rx="0" width="69" height="69" transform="translate(.5 .5)" fill="none"/><g clip-path="url(#ea)"><path d="m35.01 5.83 26.24 7.66v15.72c0 16.52-10.58 29.73-26.25 34.95C19.32 58.94 8.75 45.73 8.75 29.2V13.49l26.26-7.66Z" stroke="#FFF" stroke-width="4" stroke-linejoin="round"/><path d="M49.37 28.14c-.02-.17-.06-.34-.14-.49-.08-.15-.19-.28-.32-.39-.12-.1-.27-.18-.43-.22-.16-.05-.33-.06-.49-.03-2.62.43-8.74 2.92-12.99 2.92-4.26 0-10.38-2.49-13-2.92-.16-.03-.33-.02-.49.03-.16.04-.31.12-.43.22-.13.11-.24.24-.32.39-.08.15-.12.32-.14.49-.21 2.37-.62 8.67-.62 9.63 0 1.28 5.2 4.23 9 4.23 3.67 0 4.42-4.23 6-4.23 1.57 0 2.32 4.23 6 4.23 3.79 0 9-2.95 9-4.23 0-.96-.42-7.26-.63-9.63Zm-17.88 7.55c-.53.49-2.01 1.65-3.8 1.29-1.8-.37-2.88-2.05-3.25-2.72a.468.468 0 0 1-.05-.26c.01-.09.05-.17.12-.23.53-.49 2-1.66 3.79-1.29 1.8.36 2.88 2.04 3.25 2.72.05.07.06.16.05.25-.01.09-.05.17-.11.24Zm14.06-1.43c-.37.67-1.45 2.35-3.25 2.72-1.79.36-3.27-.8-3.8-1.29a.442.442 0 0 1-.11-.24c-.01-.09 0-.18.05-.25.37-.68 1.45-2.36 3.25-2.72 1.79-.37 3.27.8 3.79 1.29.07.06.11.14.12.23.01.09-.01.18-.05.26Z" fill="#FFF"/></g></svg><svg fill="none" viewBox="0 0 120 120" id="benefits-item1" xmlns="http://www.w3.org/2000/svg"><defs><clipPath id="fa"><rect rx="0" width="119" height="119" transform="translate(.5 .5)" fill="#fff" fill-opacity="0"/></clipPath></defs><rect rx="0" width="119" height="119" transform="translate(.5 .5)" fill="none"/><g clip-path="url(#fa)" fill="#FE9E45"><path d="M111.94 8.96c-.04-.2-.14-.4-.29-.55a1.13 1.13 0 0 0-.54-.31c-13.73-3.35-45.45 8.61-62.63 25.79a74.816 74.816 0 0 0-8.35 9.86c-5.3-.47-10.6-.07-15.12 1.89C12.27 51.25 8.56 65.89 7.53 72.18c-.06.35-.04.7.06 1.04.1.33.28.64.52.89.24.26.54.45.86.57.33.12.68.17 1.03.13l20.46-2.26c.02 1.54.11 3.08.28 4.62.11 1.06.58 2.06 1.34 2.81L40 87.89a4.58 4.58 0 0 0 2.82 1.33c1.52.17 3.05.27 4.59.28l-2.25 20.44c-.04.35.01.7.13 1.02.12.33.31.63.57.87.25.24.56.41.89.52.34.1.69.12 1.04.06 6.28-1.01 20.94-4.72 26.52-17.46 1.96-4.52 2.37-9.79 1.91-15.06a74.6 74.6 0 0 0 9.9-8.36c17.23-17.15 29.13-48.16 25.82-62.57ZM68.92 51.07a11.169 11.169 0 0 1-3.08-5.76c-.44-2.18-.22-4.44.64-6.5.85-2.05 2.29-3.81 4.14-5.05a11.21 11.21 0 0 1 6.25-1.9c2.23 0 4.4.66 6.25 1.9 1.85 1.24 3.29 3 4.14 5.05.86 2.06 1.08 4.32.64 6.5-.43 2.18-1.5 4.19-3.08 5.76a10.987 10.987 0 0 1-3.65 2.44c-1.36.57-2.82.86-4.3.86s-2.94-.29-4.3-.86c-1.37-.56-2.61-1.39-3.65-2.44Z"/><path d="M39.46 93.61c-1.28 1.29-3.34 1.79-5.82 2.22-5.57.95-10.49-3.87-9.49-9.5.38-2.13 1.51-5.13 2.21-5.83.16-.15.26-.35.3-.56.03-.21 0-.43-.09-.62a1.061 1.061 0 0 0-1.06-.57c-3.12.39-6.01 1.8-8.23 4.02-5.51 5.51-6.03 25.98-6.03 25.98s20.47-.52 25.98-6.04c2.23-2.22 3.64-5.12 4.02-8.24.08-.98-1.11-1.56-1.79-.86Z"/></g></svg><svg fill="none" viewBox="0 0 120 120" id="benefits-item2" xmlns="http://www.w3.org/2000/svg"><defs><clipPath id="ga"><rect rx="0" width="119" height="119" transform="translate(.5 .5)" fill="#fff" fill-opacity="0"/></clipPath></defs><rect rx="0" width="119" height="119" transform="translate(.5 .5)" fill="none"/><g clip-path="url(#ga)"><path d="M119.65 75.04c.16 1.4.24 2.65.24 3.75 0 1.09-.08 2.34-.24 3.74h-7.49c-.23 1.87-.59 3.75-1.05 5.62l6.9 2.93c-.7 2.26-1.64 4.56-2.81 6.91l-7.02-2.93c-.86 1.64-1.91 3.24-3.16 4.8l5.27 5.27c-1.56 1.95-3.32 3.7-5.27 5.27l-5.27-5.27c-1.56 1.25-3.16 2.3-4.8 3.16l2.93 6.91c-2.34 1.24-4.65 2.22-6.91 2.92l-2.93-6.91c-1.87.47-3.74.82-5.62 1.06v7.49c-1.4.16-2.65.24-3.74.24-1.1 0-2.34-.08-3.75-.24v-7.49a48.28 48.28 0 0 1-5.62-1.06l-2.81 6.91c-2.34-.7-4.68-1.68-7.02-2.92l2.92-6.91c-1.64-.86-3.2-1.91-4.68-3.16l-5.38 5.27a33.673 33.673 0 0 1-5.27-5.27l5.27-5.27a45.18 45.18 0 0 1-3.17-4.8l-6.9 2.93c-1.25-2.35-2.23-4.65-2.93-6.91l7.02-2.93c-.54-1.87-.93-3.75-1.17-5.62H37.7c-.15-1.4-.23-2.65-.23-3.74 0-1.1.08-2.35.23-3.75h7.49c.24-1.87.63-3.75 1.17-5.62l-7.02-2.93c.7-2.26 1.68-4.56 2.93-6.9l6.9 2.92a45.18 45.18 0 0 1 3.17-4.8l-5.27-5.27c1.56-1.95 3.31-3.7 5.27-5.26l5.38 5.26c1.48-1.24 3.04-2.3 4.68-3.16l-2.92-7.02c2.34-1.17 4.68-2.11 7.02-2.81l2.81 6.91c1.87-.55 3.75-.9 5.62-1.06v-7.49c1.41-.16 2.65-.23 3.75-.23 1.09 0 2.34.07 3.74.23v7.49c1.88.16 3.75.51 5.62 1.06l2.93-6.91c2.26.7 4.57 1.64 6.91 2.81l-2.93 7.02c1.64.94 3.24 1.99 4.8 3.16l5.27-5.26a33.61 33.61 0 0 1 5.27 5.26l-5.27 5.27c1.25 1.56 2.3 3.16 3.16 4.8l7.02-2.92c1.17 2.34 2.11 4.64 2.81 6.9l-6.9 2.93c.46 1.87.82 3.75 1.05 5.62h7.49ZM78.68 60.05c-5.15 0-9.56 1.84-13.23 5.51-3.67 3.66-5.5 8.07-5.5 13.23 0 5.15 1.83 9.56 5.5 13.22 3.67 3.67 8.08 5.51 13.23 5.51s9.56-1.84 13.23-5.51c3.66-3.66 5.5-8.07 5.5-13.22 0-5.16-1.84-9.57-5.5-13.23-3.67-3.67-8.08-5.51-13.23-5.51ZM52.34 35l-1.41 3.63c-.23.47-.6.82-1.11 1.05-.51.24-1 .24-1.47 0l-6.67-2.69a18.403 18.403 0 0 1-4.8 4.68l2.81 6.68c.24.54.24 1.05 0 1.52-.23.47-.58.82-1.05 1.05l-3.63 1.52c-.47.24-.96.24-1.46 0a2.25 2.25 0 0 1-1.12-1.05l-2.81-6.67c-1.25.23-2.38.35-3.39.35-.94 0-2.03-.12-3.28-.35l-2.81 6.67c-.16.47-.49.82-.99 1.05-.51.24-1.04.24-1.59 0l-3.51-1.52c-.54-.15-.91-.49-1.11-.99-.19-.51-.21-1.04-.06-1.58l2.81-6.56a20.256 20.256 0 0 1-4.8-4.8L4.22 39.8c-.47.16-.96.14-1.46-.06-.51-.19-.88-.53-1.12-.99l-1.4-3.63c-.24-.55-.26-1.08-.06-1.58.19-.51.57-.84 1.11-1l6.56-2.81c-.24-1.25-.35-2.38-.35-3.39 0-.94.11-2.07.35-3.4l-6.68-2.69c-.46-.24-.8-.59-.99-1.05-.2-.47-.22-.98-.06-1.53l1.52-3.63c.24-.46.59-.82 1.06-1.05.46-.23.97-.23 1.52 0l6.67 2.69c1.25-1.87 2.81-3.43 4.68-4.68l-2.69-6.67c-.23-.55-.25-1.06-.06-1.53.2-.46.57-.81 1.12-1.05L17.56.23c.47-.23.96-.23 1.47 0s.88.58 1.11 1.05l2.69 6.68c1.25-.24 2.38-.36 3.4-.36 1.01 0 2.14.12 3.39.36l2.7-6.68c.23-.54.6-.91 1.11-1.11.51-.19.99-.17 1.46.06l3.63 1.52c.55.16.92.49 1.11 1 .2.5.18.99-.06 1.46l-2.69 6.67c1.87 1.33 3.47 2.93 4.8 4.8l6.56-2.81c.54-.15 1.07-.13 1.58.06.51.2.84.53.99 1l1.53 3.63c.23.54.25 1.07.05 1.58-.19.5-.56.84-1.11.99l-6.67 2.81c.23 1.25.35 2.38.35 3.4 0 1.01-.12 2.14-.35 3.39l6.67 2.69c.55.24.92.59 1.11 1.06.2.47.18.97-.05 1.52ZM26.29 15.1c-3.09 0-5.74 1.09-7.96 3.28-2.23 2.18-3.34 4.83-3.34 7.96 0 3.12 1.11 5.77 3.34 7.96 2.22 2.18 4.87 3.28 7.96 3.28 3.08 0 5.71-1.1 7.9-3.28 2.18-2.19 3.28-4.84 3.28-7.96 0-3.13-1.1-5.78-3.28-7.96-2.19-2.19-4.82-3.28-7.9-3.28Z" fill="#FE9E45"/></g></svg><svg fill="none" viewBox="0 0 120 120" id="benefits-item3" xmlns="http://www.w3.org/2000/svg"><defs><clipPath id="ha"><rect rx="0" width="119" height="119" transform="translate(.5 .5)" fill="#fff" fill-opacity="0"/></clipPath></defs><rect rx="0" width="119" height="119" transform="translate(.5 .5)" fill="none"/><g clip-path="url(#ha)"><path d="M.03 60 0 23.43l45-6.12V60H.03ZM52.5 16.23l59.98-8.73V60H52.5V16.23Zm60 51.27-.02 52.5-59.98-8.44V67.5h60ZM45 110.6.03 104.43V67.49H45v43.11Z" fill="#FE9E45"/></g></svg><svg fill="none" viewBox="0 0 100 100" id="benefits-item4" xmlns="http://www.w3.org/2000/svg"><path d="M90.72 78.9 70.21 61.62c1.5-3.19 1.94-6.56 1.32-10.11-.62-3.55-2.2-6.63-4.74-9.23l-10.06-9.86c-2.01-2.02-4.1-3.65-6.25-4.89-2.15-1.23-3.81-1.95-4.98-2.14L43.75 25c0 .26.06.63.19 1.12.13.49.73 1.54 1.81 3.17 1.07 1.63 2.49 3.32 4.25 5.08l10.35 12.89c.52.33.73 1.14.63 2.44-.1 1.3-.63 2.44-1.61 3.42l-12.5-12.5c-1.5-1.5-3.29-2.77-5.37-3.81s-3.78-1.69-5.08-1.95l-2.05-.49c.07.52.2 1.24.39 2.15.2.91.83 2.47 1.9 4.69 1.08 2.21 2.4 4.1 3.96 5.66l12.5 12.5c-1.04 1.04-2.16 1.63-3.37 1.76-1.2.13-2.03-.13-2.49-.78L34.37 50c-1.89-1.89-3.61-3.36-5.18-4.4-1.56-1.04-2.63-1.59-3.22-1.66l-.97-.19c.06.45.19 1.1.39 1.95.19.84.91 2.41 2.14 4.69 1.24 2.27 2.87 4.39 4.89 6.34l9.96 9.96c2.54 2.61 5.58 4.22 9.13 4.84 3.55.62 6.88.18 10.01-1.32L79 90.72C70.28 96.9 60.61 100 50 100c-6.78 0-13.25-1.32-19.44-3.96-6.18-2.64-11.51-6.18-15.97-10.64-4.46-4.46-8-9.79-10.64-15.97C1.31 63.24 0 56.77 0 50c0-6.78 1.31-13.25 3.95-19.44 2.64-6.18 6.18-11.51 10.64-15.97 4.46-4.45 9.79-8 15.97-10.64C36.75 1.31 43.22 0 50 0c6.77 0 13.24 1.31 19.43 3.95 6.18 2.64 11.51 6.19 15.97 10.64 4.46 4.46 8 9.79 10.64 15.97C98.68 36.75 100 43.22 100 50c0 10.61-3.1 20.24-9.28 28.9Z" fill="#FE9E45"/></svg><svg fill="none" viewBox="0 0 120 120" id="benefits-item5" xmlns="http://www.w3.org/2000/svg"><defs><clipPath id="ja"><rect rx="0" width="119" height="119" transform="translate(.5 .5)" fill="#fff" fill-opacity="0"/></clipPath></defs><rect rx="0" width="119" height="119" transform="translate(.5 .5)" fill="none"/><g clip-path="url(#ja)"><path d="M60.09 15c-11.29 0-21.58 3.73-27.67 6.77-.55.28-1.06.55-1.54.81-.94.51-1.75.99-2.38 1.42l6.92 10.19 3.26 1.3c12.74 6.43 29.83 6.43 42.57 0l3.7-1.92L91.5 24a38.33 38.33 0 0 0-4.23-2.4c-6.05-3.01-16.1-6.6-27.18-6.6Zm-16.1 11.54c-2.45-.46-4.88-1.07-7.25-1.82 5.7-2.54 14.19-5.22 23.35-5.22 6.34 0 12.34 1.29 17.3 2.92-5.81.82-12.01 2.21-17.92 3.91-4.65 1.35-10.09 1.2-15.48.21Zm39.9 12.66-.62.3c-14.01 7.08-32.6 7.08-46.62 0l-.58-.29c-21.05 23.1-37.13 65.78 24.02 65.78 61.16 0 44.69-43.47 23.8-65.79ZM57.5 60c-1.33 0-2.6.52-3.54 1.46S52.5 63.67 52.5 65a5.003 5.003 0 0 0 5 5V60Zm5-5v-2.5h-5V55c-2.66 0-5.2 1.05-7.08 2.92a10.03 10.03 0 0 0 0 14.15C52.3 73.94 54.84 75 57.5 75v10c-2.18 0-4.03-1.39-4.72-3.34-.1-.32-.27-.61-.49-.86a2.498 2.498 0 0 0-1.74-.87c-.34-.02-.67.03-.99.14-.31.11-.6.29-.85.51-.24.23-.44.5-.58.8-.14.31-.22.63-.23.97-.01.33.04.67.17.98a9.902 9.902 0 0 0 3.65 4.83C53.41 89.35 55.43 90 57.5 90v2.5h5V90c2.65 0 5.19-1.06 7.07-2.93 1.87-1.88 2.93-4.42 2.93-7.07 0-2.66-1.06-5.2-2.93-7.08A10.023 10.023 0 0 0 62.5 70V60c2.17 0 4.02 1.38 4.71 3.33.1.32.27.61.49.86a2.498 2.498 0 0 0 1.74.87c.34.02.67-.03.99-.14.31-.11.6-.29.85-.51.24-.23.44-.5.58-.8.14-.31.22-.63.23-.97.01-.33-.04-.67-.17-.98a9.902 9.902 0 0 0-3.65-4.83A10.035 10.035 0 0 0 62.5 55Zm0 20v10c1.32 0 2.59-.53 3.53-1.47S67.5 81.32 67.5 80a5.003 5.003 0 0 0-5-5Z" fill="#FE9E45" fill-rule="evenodd"/></g></svg><svg fill="none" viewBox="0 0 120 120" id="benefits-item6" xmlns="http://www.w3.org/2000/svg"><defs><clipPath id="ka"><rect rx="0" width="119" height="119" transform="translate(.5 .5)" fill="#fff" fill-opacity="0"/></clipPath></defs><rect rx="0" width="119" height="119" transform="translate(.5 .5)" fill="none"/><g clip-path="url(#ka)" fill="#FE9E45"><path d="M26.25 19.53c-.6-.01-1.19-.2-1.67-.55a2.89 2.89 0 0 1-1.04-1.42c-.19-.57-.19-1.18-.02-1.76.18-.57.53-1.08 1-1.44A58.033 58.033 0 0 1 60 3.74c9.97 0 24.3 1.69 35.62 9.83.62.44 1.04 1.12 1.16 1.87.13.75-.04 1.52-.48 2.14a2.93 2.93 0 0 1-1.9 1.15c-.76.12-1.53-.06-2.15-.51A56.295 56.295 0 0 0 60 9.48a52.55 52.55 0 0 0-31.88 9.45c-.53.42-1.2.64-1.87.6Z"/><path d="M105.86 45.97c-.47 0-.92-.12-1.33-.33-.41-.22-.77-.53-1.03-.91-6.49-9.15-18.08-21.34-43.51-21.34a52.413 52.413 0 0 0-24.42 5.35 52.526 52.526 0 0 0-19.19 16.03 2.89 2.89 0 0 1-1.87 1.14 2.908 2.908 0 0 1-2.94-1.36c-.21-.33-.34-.71-.4-1.1a2.894 2.894 0 0 1 .64-2.21 58.178 58.178 0 0 1 21.22-17.66 58.12 58.12 0 0 1 26.96-5.92c21.04 0 36.79 7.8 48.16 23.77.43.63.6 1.4.47 2.16-.14.75-.56 1.42-1.19 1.85-.46.33-1.01.51-1.57.53Z"/><path d="M46.04 116.25c-.58-.01-1.14-.18-1.63-.51a2.969 2.969 0 0 1-1.29-2.45 2.84 2.84 0 0 1 .9-2.04c.28-.26.61-.46.97-.59 16.39-6.3 26.25-19.2 26.25-34.54.12-1.51-.1-3.02-.62-4.43-.53-1.42-1.35-2.71-2.42-3.77-1.07-1.07-2.36-1.9-3.77-2.42-1.42-.53-2.93-.74-4.44-.63-6.97 0-10.35 3.75-11.25 12.56-.41 4.12-2.41 7.92-5.57 10.6a16.055 16.055 0 0 1-11.38 3.77c-2.22.03-4.42-.4-6.47-1.27s-3.89-2.15-5.42-3.77a16.031 16.031 0 0 1-3.43-5.64c-.75-2.09-1.04-4.32-.88-6.54.21-11.59 5-22.63 13.32-30.71a43.884 43.884 0 0 1 31.08-12.41c11.89 0 23.3 4.7 31.73 13.08A45.046 45.046 0 0 1 105 76.19a69.927 69.927 0 0 1-5.22 24.38c-.3.69-.86 1.24-1.56 1.52-.7.29-1.48.3-2.19.02a3.09 3.09 0 0 1-.93-.62c-.27-.27-.48-.59-.62-.94a2.91 2.91 0 0 1 .01-2.19c2.88-7.05 4.5-14.55 4.77-22.17a39.182 39.182 0 0 0-11.57-27.61 39.193 39.193 0 0 0-27.7-11.38c-5.01-.1-10 .79-14.68 2.62a38.299 38.299 0 0 0-12.56 8.05 38.18 38.18 0 0 0-8.51 12.25c-2.01 4.6-3.08 9.56-3.17 14.57a10.409 10.409 0 0 0 2.65 8.09c.99 1.09 2.2 1.95 3.55 2.53 1.34.59 2.8.88 4.26.86 1.35.13 2.72 0 4.01-.4 1.3-.39 2.51-1.04 3.56-1.91a10.23 10.23 0 0 0 3.68-6.99c1.35-11.66 7.09-17.59 17.1-17.59 2.27-.11 4.54.25 6.66 1.07 2.12.82 4.04 2.08 5.64 3.7a16.04 16.04 0 0 1 3.64 5.67c.8 2.12 1.15 4.39 1.01 6.66 0 17.78-11.25 32.7-30 39.87-.26.03-.52.03-.79 0Z"/><path d="M74.13 113.55c-.72-.02-1.41-.28-1.95-.75-.27-.27-.48-.58-.62-.93a2.77 2.77 0 0 1-.22-1.1c0-.38.07-.75.22-1.1.14-.34.35-.66.62-.92A47.383 47.383 0 0 0 85.46 76.2c0-5.85-1.8-24.94-25.13-24.94-3.4-.12-6.78.44-9.97 1.64-3.18 1.2-6.09 3.03-8.55 5.37a23.112 23.112 0 0 0-5.14 7.66A23.488 23.488 0 0 0 34.94 75c-.01.75-.31 1.48-.85 2.01-.54.54-1.27.84-2.03.84-.38 0-.75-.07-1.1-.21-.36-.14-.67-.35-.94-.62-.27-.26-.48-.58-.63-.93-.15-.34-.22-.72-.22-1.09-.06-3.85.65-7.66 2.08-11.23 1.43-3.56 3.55-6.81 6.24-9.55 2.99-2.87 6.52-5.11 10.38-6.61 3.86-1.49 7.99-2.2 12.12-2.09 22.8 0 30.9 16.5 30.9 30.68a52.824 52.824 0 0 1-14.62 36.3c-.26.32-.58.58-.95.76-.37.18-.78.28-1.19.29Z"/><path d="M32.47 104.02c-1.95 0-3.91-.12-5.85-.34a2.8 2.8 0 0 1-1.09-.32c-.34-.18-.64-.42-.88-.72-.25-.29-.43-.63-.54-1-.11-.37-.14-.75-.1-1.13.05-.38.16-.75.35-1.09a2.88 2.88 0 0 1 1.76-1.37c.37-.1.76-.12 1.14-.07 9.34 1.05 16.69-.6 21.9-4.95a23.98 23.98 0 0 0 5.71-7.68c1.37-2.92 2.13-6.08 2.24-9.3.02-.38.11-.76.28-1.1.16-.34.4-.64.69-.89.28-.25.62-.44.98-.56.36-.11.74-.15 1.12-.12.76.06 1.46.41 1.97.98.5.56.76 1.3.73 2.06-.16 4.01-1.13 7.95-2.86 11.57a29.515 29.515 0 0 1-7.19 9.51 30.75 30.75 0 0 1-20.36 6.52Z"/></g></svg><svg fill="none" viewBox="0 0 40 40" id="buy-item" xmlns="http://www.w3.org/2000/svg"><defs><clipPath id="la"><rect rx="0" width="39" height="39" transform="translate(.5 .5)" fill="#fff" fill-opacity="0"/></clipPath></defs><rect rx="0" width="39" height="39" transform="translate(.5 .5)" fill="none"/><g clip-path="url(#la)" fill="#FE9E45"><path d="M2.22 24.44h35.55v-8.89H2.22v8.89Zm8.89-5.56h15.55v2.23H11.11v-2.23Zm-4.45 0h2.22v2.23H6.66v-2.23ZM35.55 4.44H4.44c-.59 0-1.16.23-1.57.65-.42.42-.65.98-.65 1.57v6.67h35.55V6.66c0-.59-.23-1.15-.65-1.57-.41-.42-.98-.65-1.57-.65ZM8.88 10H6.66V7.77h2.22V10Zm17.78 0H11.11V7.77h15.55V10ZM2.22 33.33c0 .59.23 1.15.65 1.57.41.42.98.65 1.57.65h31.11c.59 0 1.16-.23 1.57-.65.42-.42.65-.98.65-1.57v-6.67H2.22v6.67ZM11.11 30h15.55v2.22H11.11V30Zm-4.45 0h2.22v2.22H6.66V30Z"/></g></svg><svg fill="none" viewBox="0 0 25 22" id="cart" xmlns="http://www.w3.org/2000/svg"><defs><clipPath id="ma"><rect rx="0" width="24" height="21" transform="translate(.5 .5)" fill="#fff" fill-opacity="0"/></clipPath></defs><rect rx="0" width="24" height="21" transform="translate(.5 .5)" fill="none"/><g clip-path="url(#ma)"><path d="M21.9 13.75H9.18l.28 1.37h11.65c.67 0 1.17.61 1.02 1.26l-.24 1.04c.81.39 1.37 1.22 1.37 2.17 0 1.34-1.11 2.42-2.47 2.4-1.29-.01-2.36-1.05-2.39-2.33-.02-.7.26-1.34.73-1.79h-9.1c.45.44.73 1.05.73 1.72 0 1.37-1.15 2.47-2.55 2.4a2.423 2.423 0 0 1-2.31-2.27c-.05-.95.45-1.78 1.22-2.22L4.07 2.75H1.04C.46 2.75 0 2.28 0 1.71v-.68C0 .46.46 0 1.04 0h4.45c.49 0 .92.34 1.02.82l.4 1.93h17.04c.67 0 1.17.61 1.02 1.25l-2.05 8.94c-.11.47-.53.81-1.02.81Zm-4.41-5.5h-1.87V5.67c0-.29-.23-.52-.52-.52h-1.04c-.29 0-.52.23-.52.52v2.58h-1.87c-.46 0-.7.55-.37.88l2.91 2.88c.2.2.53.2.74 0l2.91-2.88c.32-.33.09-.88-.37-.88Z" fill="#FFF"/></g></svg><svg fill="none" viewBox="0 0 25 25" id="mail" xmlns="http://www.w3.org/2000/svg"><defs><clipPath id="na"><rect rx="0" width="24" height="24" transform="translate(.5 .5)" fill="#fff" fill-opacity="0"/></clipPath></defs><rect rx="0" width="24" height="24" transform="translate(.5 .5)" fill="none"/><g clip-path="url(#na)"><path d="M22.91 3.12c1.15 0 2.09.93 2.09 2.08v14.59c0 1.15-.94 2.08-2.09 2.08H2.08C.93 21.87 0 20.94 0 19.79V5.2c0-1.15.93-2.08 2.08-2.08h20.83ZM8.95 14.16l-6.13 6.06h19.15l-6.07-6-3.4 2.36-3.55-2.42ZM23.3 9.11l-6 4.14 6 5.93V9.11Zm-21.6.08v9.79l5.85-5.79-5.85-4Zm21.19-4.42H2.12a.423.423 0 0 0-.4.23c-.02.05-.03.1-.02.16v2.02l10.8 7.38 10.8-7.45V5.24c0-.16-.04-.29-.12-.36a.305.305 0 0 0-.13-.09c-.05-.01-.1-.02-.16-.02Z" fill="#FFF" fill-rule="evenodd"/></g></svg><svg fill="none" viewBox="0 0 100 100" id="promo-item1" xmlns="http://www.w3.org/2000/svg"><defs><clipPath id="oa"><rect rx="0" width="99" height="99" transform="translate(.5 .5)" fill="#fff" fill-opacity="0"/></clipPath></defs><rect rx="0" width="99" height="99" transform="translate(.5 .5)" fill="none"/><g clip-path="url(#oa)"><path d="M40.82 12.5c-2.74 0-5.14 1.4-6.84 3.22-1.7 1.82-2.92 4.09-4 6.54-1.66 3.78-2.85 7.99-3.91 11.92-3.39.98-6.28 2.22-8.59 3.71-2.71 1.74-4.98 4.16-4.98 7.42 0 2.83 1.73 5.1 3.9 6.74 1.86 1.39 4.14 2.55 6.84 3.51.15.72.39 1.45.68 2.15-2.63 1.49-6.81 4.37-10.84 9.86l-1.85 2.64 2.63 1.85 10.25 7.04-4.19 8.4h60.16l-4.2-8.4 10.25-7.04 2.64-1.85-1.86-2.64c-4.03-5.49-8.2-8.37-10.84-9.86.3-.7.53-1.43.69-2.15 2.69-.96 4.98-2.12 6.83-3.51 2.17-1.64 3.91-3.91 3.91-6.74 0-3.26-2.27-5.68-4.98-7.42-2.32-1.49-5.2-2.73-8.6-3.72-1.17-4.07-2.46-8.34-4.1-12.1-1.06-2.43-2.23-4.67-3.9-6.45-1.67-1.78-4.06-3.12-6.74-3.12-1.82 0-3.2.5-4.69.87-1.49.38-2.99.69-4.49.69-3 0-5.52-1.56-9.18-1.56Zm0 6.25c.64 0 4.49 1.56 9.18 1.56 2.34 0 4.43-.48 6.05-.88 1.62-.41 2.86-.68 3.13-.68.71 0 1.25.23 2.14 1.17.89.93 1.94 2.63 2.83 4.68 1.7 3.89 2.99 9.19 4.4 14.07 0-.02.17-.15-.29.09-.78.43-2.42.98-4.4 1.27-3.97.6-9.37.59-13.86.59-4.47 0-9.89-.06-13.87-.68-1.99-.31-3.6-.85-4.4-1.27-.24-.14-.33-.09-.39-.1v-.1c.01-.02-.01-.07 0-.1l.1-.09c.23-.42.37-.89.39-1.37v-.1c1.12-4.15 2.38-8.54 3.91-12.01.91-2.09 1.9-3.78 2.83-4.78.93-1.01 1.56-1.27 2.25-1.27ZM25.58 40.91c.71 1.47 1.96 2.64 3.22 3.32 1.91 1.02 4.09 1.49 6.45 1.86 4.71.73 10.23.78 14.75.78 4.49 0 10.02.03 14.74-.68 2.37-.36 4.53-.82 6.45-1.86 1.28-.69 2.52-1.93 3.22-3.42 1.93.69 3.55 1.42 4.69 2.15 1.82 1.17 2.15 2.04 2.15 2.25 0 .18-.16.78-1.47 1.76-1.31.97-3.55 2.11-6.44 3.02-5.79 1.85-14.12 3.03-23.34 3.03-9.23 0-17.56-1.18-23.35-3.03-2.89-.91-5.13-2.05-6.44-3.02-1.31-.98-1.46-1.58-1.46-1.76 0-.21.24-.99 2.05-2.15 1.13-.73 2.8-1.53 4.78-2.25ZM33.69 58c1.02.17 2.04.45 3.12.59.41 2.75 2.54 5.16 5.96 5.37 2.63.16 5.6-1.09 5.86-4.59h2.73c.26 3.5 3.22 4.75 5.86 4.59 3.42-.21 5.56-2.62 5.96-5.37 1.08-.14 2.1-.42 3.12-.59l-.29 1.95c-.96 5.15-3.26 9.9-6.15 13.19-2.9 3.28-6.29 5.03-9.86 4.98-3.68-.05-7-1.82-9.87-5.08-2.87-3.26-5.12-7.92-6.15-13.09L33.69 58Zm38.18 4.5c1.16.68 4.21 2.68 7.72 6.54l-9.48 6.54-2.24 1.47 1.17 2.44.88 1.76h-9.87a23.54 23.54 0 0 0 4.5-4.01c3.44-3.9 5.75-9.02 7.03-14.55.11-.06.19-.13.29-.19Zm-43.85.09c.12.08.27.13.39.2 1.35 5.46 3.64 10.51 7.04 14.35 1.4 1.6 3.03 2.97 4.78 4.11H30.07l.88-1.76 1.17-2.44-2.24-1.47-9.47-6.54c3.3-3.65 6.32-5.67 7.61-6.45Z" fill="#FFF"/></g></svg><svg fill="none" viewBox="0 0 100 100" id="promo-item2" xmlns="http://www.w3.org/2000/svg"><defs><clipPath id="pa"><rect rx="0" width="99" height="99" transform="translate(.5 .5)" fill="#fff" fill-opacity="0"/></clipPath></defs><rect rx="0" width="99" height="99" transform="translate(.5 .5)" fill="none"/><g clip-path="url(#pa)"><path d="M87.5 45.83c0 23.12-16 44.75-37.5 50-21.5-5.25-37.5-26.88-37.5-50v-25L50 4.16l37.5 16.67v25ZM50 87.5c15.62-4.17 29.16-22.75 29.16-40.75v-20.5L50 13.25l-29.17 13v20.5c0 18 13.54 36.58 29.17 40.75Zm-8.34-16.67L25 54.16l5.87-5.87 10.79 10.75 27.46-27.46L75 37.5 41.66 70.83Z" fill="#FFF"/></g></svg><svg fill="none" viewBox="0 0 90 90" id="promo-item3" xmlns="http://www.w3.org/2000/svg"><defs><clipPath id="qa"><rect rx="0" width="89" height="89" transform="translate(.5 .5)" fill="#fff" fill-opacity="0"/></clipPath></defs><rect rx="0" width="89" height="89" transform="translate(.5 .5)" fill="none"/><g clip-path="url(#qa)"><path d="M77.27 0H36.01L9.73 45h26.28l-22.5 45 60-56.25H43.5L77.27 0Z" fill="#FFF"/></g></svg><svg fill="none" viewBox="0 0 45 45" id="server" xmlns="http://www.w3.org/2000/svg"><defs><clipPath id="ra"><rect rx="0" width="44" height="44" transform="translate(.5 .5)" fill="#fff" fill-opacity="0"/></clipPath></defs><rect rx="0" width="44" height="44" transform="translate(.5 .5)" fill="none"/><g clip-path="url(#ra)"><path d="M28.12 31.87c-.37 0-.73.11-1.04.32-.31.2-.55.49-.69.84-.14.34-.18.72-.11 1.08.07.36.25.7.51.96a1.915 1.915 0 0 0 2.05.41c.34-.14.63-.39.84-.69.21-.31.32-.67.32-1.04 0-.5-.2-.98-.55-1.33-.36-.35-.83-.55-1.33-.55Zm-11.25 0h-5.62c-.5 0-.98.2-1.33.55-.35.35-.55.83-.55 1.33a1.88 1.88 0 0 0 1.88 1.87h5.62c.5 0 .97-.2 1.33-.55.35-.35.55-.83.55-1.32 0-.5-.2-.98-.55-1.33-.36-.35-.83-.55-1.33-.55Zm16.88 0c-.38 0-.74.11-1.05.32-.31.2-.55.49-.69.84-.14.34-.18.72-.1 1.08.07.36.25.7.51.96s.6.44.96.51c.36.08.74.04 1.08-.1.35-.14.64-.39.84-.69.21-.31.32-.67.32-1.04a1.88 1.88 0 0 0-1.87-1.88Zm-5.63-11.25c-.37 0-.73.11-1.04.32-.31.2-.55.49-.69.84-.14.34-.18.72-.11 1.08.07.36.25.7.51.96a1.915 1.915 0 0 0 2.05.41c.34-.14.63-.38.84-.69.21-.31.32-.67.32-1.04 0-.5-.2-.98-.55-1.33-.36-.35-.83-.55-1.33-.55Zm-11.25 0h-5.62c-.5 0-.98.2-1.33.55-.35.35-.55.83-.55 1.33a1.88 1.88 0 0 0 1.88 1.87h5.62c.5 0 .97-.2 1.33-.55.35-.35.55-.83.55-1.32 0-.5-.2-.98-.55-1.33-.36-.35-.83-.55-1.33-.55ZM33.75 9.37c-.38 0-.74.11-1.05.32-.31.2-.55.49-.69.84-.14.34-.18.72-.1 1.08.07.36.25.7.51.96s.6.44.96.51c.36.08.74.04 1.08-.1.35-.14.64-.38.84-.69.21-.31.32-.67.32-1.04a1.88 1.88 0 0 0-1.87-1.88Zm0 11.25c-.38 0-.74.11-1.05.32-.31.2-.55.49-.69.84-.14.34-.18.72-.1 1.08.07.36.25.7.51.96s.6.44.96.51c.36.08.74.04 1.08-.1.35-.14.64-.38.84-.69.21-.31.32-.67.32-1.04a1.88 1.88 0 0 0-1.87-1.88Zm7.5-11.25c0-1.49-.6-2.92-1.65-3.98a5.656 5.656 0 0 0-3.98-1.64H9.37c-1.49 0-2.92.59-3.98 1.64a5.656 5.656 0 0 0-1.64 3.98v3.75c0 1.39.52 2.72 1.46 3.75a5.552 5.552 0 0 0-1.46 3.75v3.75c0 1.39.52 2.72 1.46 3.75a5.552 5.552 0 0 0-1.46 3.75v3.75c0 1.49.59 2.92 1.64 3.98a5.666 5.666 0 0 0 3.98 1.65h26.25c1.49 0 2.92-.6 3.98-1.65a5.666 5.666 0 0 0 1.65-3.98v-3.75a5.61 5.61 0 0 0-1.47-3.75 5.61 5.61 0 0 0 1.47-3.75v-3.75a5.61 5.61 0 0 0-1.47-3.75 5.61 5.61 0 0 0 1.47-3.75V9.37ZM37.5 35.62c0 .5-.2.97-.55 1.33-.36.35-.83.55-1.33.55H9.37c-.5 0-.97-.2-1.33-.55-.35-.36-.54-.83-.54-1.33v-3.75c0-.5.19-.97.54-1.33.36-.35.83-.54 1.33-.54h26.25c.5 0 .97.19 1.33.54.35.36.55.83.55 1.33v3.75Zm0-11.25c0 .5-.2.97-.55 1.33-.36.35-.83.55-1.33.55H9.37c-.5 0-.97-.2-1.33-.55-.35-.36-.54-.83-.54-1.33v-3.75c0-.5.19-.97.54-1.33.36-.35.83-.54 1.33-.54h26.25c.5 0 .97.19 1.33.54.35.36.55.83.55 1.33v3.75Zm0-11.25c0 .5-.2.97-.55 1.33-.36.35-.83.55-1.33.55H9.37c-.5 0-.97-.2-1.33-.55-.35-.36-.54-.83-.54-1.33V9.37c0-.5.19-.97.54-1.33.36-.35.83-.54 1.33-.54h26.25c.5 0 .97.19 1.33.54.35.36.55.83.55 1.33v3.75Zm-9.38-3.75c-.37 0-.73.11-1.04.32-.31.2-.55.49-.69.84-.14.34-.18.72-.11 1.08.07.36.25.7.51.96a1.915 1.915 0 0 0 2.05.41c.34-.14.63-.38.84-.69.21-.31.32-.67.32-1.04 0-.5-.2-.98-.55-1.33-.36-.35-.83-.55-1.33-.55Zm-11.25 0h-5.62c-.5 0-.98.2-1.33.55-.35.35-.55.83-.55 1.33a1.88 1.88 0 0 0 1.88 1.87h5.62c.5 0 .97-.2 1.33-.55.35-.35.55-.83.55-1.32 0-.5-.2-.98-.55-1.33-.36-.35-.83-.55-1.33-.55Z" fill="#FFF"/></g></svg></svg>