<svg width="203.828613" height="60.000000" viewBox="0 0 203.829 60" fill="none" xmlns="http://www.w3.org/2000/svg" xmlns:xlink="http://www.w3.org/1999/xlink">
	<desc>
			Created with Pixso.
	</desc>
	<defs/>
	<rect rx="5.000000" width="60.000000" height="60.000000" fill="#FFFFFF" fill-opacity="1.000000"/>
	<path d="M40.34 29.17C41.85 29.68 43.02 30.51 43.85 31.66C44.68 32.82 45.1 34.25 45.1 35.98C45.1 39.38 43.78 41.98 41.16 43.81C38.57 45.6 35.02 46.5 30.5 46.5L14.33 46.5L21.05 12.9L35.93 12.9C39.32 12.9 41.93 13.54 43.75 14.82C45.61 16.06 46.54 17.89 46.54 20.29C46.54 22.46 45.96 24.32 44.81 25.86C43.69 27.36 42.2 28.46 40.34 29.17ZM25.03 16.78L22.87 27.54L32.71 27.54C35.43 27.54 37.58 26.99 39.14 25.9C40.74 24.78 41.54 23.17 41.54 21.06C41.54 19.62 40.97 18.54 39.82 17.84C38.7 17.14 37.06 16.78 34.92 16.78L25.03 16.78ZM30.84 42.61C33.88 42.61 36.22 42.05 37.85 40.93C39.51 39.78 40.34 38.14 40.34 36.03C40.34 34.37 39.75 33.18 38.57 32.48C37.41 31.78 35.67 31.42 33.34 31.42L22.1 31.42L19.9 42.61L30.84 42.61Z" fill="#481C03" fill-opacity="1.000000" fill-rule="nonzero"/>
	<path d="M48.88 28.63C49.05 28.06 49.13 27.47 49.13 26.86Q49.13 25.8 48.81 25.07Q48.49 24.33 47.95 23.97Q47.66 23.77 47.35 23.68Q47.06 23.59 46.74 23.59Q46.03 23.59 45.59 23.93Q45.56 23.97 45.52 24Q45.29 24.2 45.12 24.45Q44.96 24.68 44.86 24.96Q44.65 25.52 44.44 26.4Q44.25 27.24 44.07 27.66Q43.94 27.91 43.75 28.01Q43.62 28.07 43.47 28.07Q43.31 28.07 43.17 28.01Q42.98 27.92 42.84 27.72Q42.59 27.35 42.59 26.61Q42.59 25.54 43.2 24.47L41.84 23.92Q41.52 24.45 41.34 25.15Q41.3 25.32 41.26 25.5Q41.16 26.04 41.16 26.59Q41.16 27.65 41.48 28.39Q41.8 29.11 42.35 29.48Q42.57 29.62 42.81 29.71Q43.16 29.84 43.56 29.84Q44.29 29.84 44.74 29.49Q44.77 29.47 44.79 29.44Q45.08 29.19 45.27 28.88Q45.38 28.69 45.46 28.48Q45.67 27.91 45.88 27.03C45.97 26.65 46.05 26.35 46.12 26.13Q46.23 25.79 46.42 25.58Q46.51 25.47 46.64 25.41Q46.74 25.36 46.87 25.36Q47 25.36 47.12 25.41Q47.33 25.49 47.48 25.73Q47.7 26.09 47.7 26.85Q47.7 27.53 47.48 28.21C47.33 28.67 47.14 29.06 46.89 29.39L48.24 29.99C48.5 29.65 48.72 29.19 48.88 28.63ZM41.3 38.26L41.3 34.76Q41.3 33.5 41.78 32.55Q42.1 31.89 42.61 31.43Q42.84 31.22 43.12 31.05Q43.22 30.99 43.32 30.94Q44.12 30.51 45.14 30.51Q46.17 30.51 46.97 30.94Q47.07 30.99 47.17 31.05Q47.43 31.21 47.65 31.41Q48.18 31.87 48.52 32.55Q49 33.5 49 34.76L49 38.26L41.3 38.26ZM47.53 34.85Q47.53 33.85 47.05 33.2L47.05 33.2Q46.98 33.1 46.89 33.01Q46.72 32.82 46.5 32.68Q45.94 32.32 45.14 32.32Q44.34 32.32 43.78 32.69Q43.58 32.82 43.41 33.01Q43.31 33.11 43.22 33.23L43.22 33.23Q42.76 33.87 42.76 34.85L42.76 36.47L47.53 36.47L47.53 34.85ZM41.3 38.68L49 42.01L49 43.77L41.3 47.09L41.3 45.17L46.8 42.83L41.3 40.45L41.3 38.68Z" fill="#FE9E45" fill-opacity="1.000000" fill-rule="evenodd"/>
	<path d="M48.47 30.18Q48.9 29.61 49.17 28.72L49.17 28.71Q49.22 28.53 49.26 28.35Q49.43 27.62 49.43 26.86Q49.43 25.74 49.08 24.95Q48.73 24.13 48.12 23.72Q47.79 23.5 47.43 23.39Q47.1 23.29 46.74 23.29Q45.96 23.29 45.46 23.66Q45.39 23.71 45.32 23.77Q45.06 24 44.87 24.28Q44.69 24.54 44.58 24.85Q44.36 25.43 44.15 26.33Q43.97 27.14 43.8 27.53Q43.73 27.66 43.65 27.72L43.65 27.72Q43.58 27.77 43.47 27.77Q43.38 27.77 43.31 27.74Q43.18 27.69 43.08 27.55Q42.89 27.26 42.89 26.61Q42.89 25.62 43.46 24.62L43.63 24.32L41.72 23.55L41.59 23.76Q41.24 24.33 41.05 25.08Q41 25.27 40.97 25.46Q40.86 26.02 40.86 26.59Q40.86 27.71 41.21 28.51Q41.56 29.3 42.17 29.71Q42.17 29.72 42.18 29.73Q42.44 29.9 42.72 30Q43.12 30.14 43.56 30.14Q44.34 30.14 44.86 29.77Q44.93 29.72 44.99 29.67Q45.31 29.39 45.52 29.05Q45.65 28.83 45.75 28.58Q45.96 28 46.17 27.1Q46.3 26.54 46.41 26.22Q46.5 25.94 46.64 25.78L46.65 25.78L46.66 25.77Q46.7 25.71 46.77 25.68Q46.82 25.66 46.87 25.66Q46.93 25.66 46.98 25.68Q47.12 25.72 47.22 25.88Q47.4 26.17 47.4 26.85Q47.4 27.48 47.19 28.12Q46.99 28.75 46.65 29.21L46.43 29.51L48.33 30.36L48.47 30.18ZM44.07 27.66Q44.25 27.24 44.44 26.4Q44.65 25.52 44.86 24.96Q44.96 24.68 45.12 24.45Q45.29 24.2 45.52 24Q45.56 23.97 45.59 23.93Q46.03 23.59 46.74 23.59Q47.06 23.59 47.35 23.68L47.35 23.68Q47.66 23.77 47.95 23.97Q48.49 24.33 48.81 25.07Q49.13 25.8 49.13 26.86Q49.13 27.6 48.97 28.31Q48.93 28.47 48.88 28.63C48.72 29.19 48.5 29.65 48.24 29.99L47.17 29.51L46.89 29.39Q46.98 29.27 47.06 29.14Q47.31 28.73 47.48 28.21Q47.7 27.53 47.7 26.85Q47.7 26.09 47.48 25.73Q47.33 25.49 47.12 25.41Q47 25.36 46.87 25.36Q46.74 25.36 46.64 25.41Q46.51 25.47 46.42 25.58Q46.23 25.79 46.12 26.13C46.05 26.35 45.97 26.65 45.88 27.03Q45.67 27.91 45.46 28.48Q45.38 28.69 45.27 28.88Q45.08 29.19 44.79 29.44Q44.77 29.47 44.74 29.49L44.74 29.49Q44.29 29.84 43.56 29.84Q43.16 29.84 42.81 29.71Q42.57 29.62 42.35 29.48Q41.8 29.11 41.48 28.39Q41.16 27.65 41.16 26.59Q41.16 26.04 41.26 25.5L41.26 25.5Q41.3 25.32 41.34 25.15Q41.52 24.45 41.84 23.92L42.92 24.36L43.2 24.47Q43.12 24.6 43.06 24.74Q42.59 25.67 42.59 26.61L42.59 26.61Q42.59 27.35 42.84 27.72Q42.98 27.92 43.17 28.01Q43.31 28.07 43.47 28.07Q43.62 28.07 43.75 28.01Q43.94 27.91 44.07 27.66ZM41.51 32.41Q41 33.43 41 34.76L41 38.22L41 38.56L41 40.65L46.03 42.82L41 44.97L41 47.55L49.3 43.97L49.3 41.82L41.77 38.56L49.3 38.56L49.3 34.76Q49.3 33.43 48.79 32.41Q48.43 31.69 47.86 31.19Q47.62 30.97 47.33 30.8Q47.2 30.72 47.06 30.65Q46.21 30.21 45.14 30.21Q44.07 30.21 43.22 30.65Q43.09 30.72 42.97 30.79Q42.64 30.99 42.37 31.24Q41.85 31.73 41.51 32.41ZM46.41 42.66L46.8 42.83L46.41 42.99L41.3 45.17L41.3 46.77L41.3 47.09L41.59 46.96L49 43.77L49 42.01L41.59 38.81L41.3 38.68L41.3 39.01L41.3 40.45L46.41 42.66ZM41.3 37.96L41.3 38.26L49 38.26L49 37.96L49 34.76Q49 33.5 48.52 32.55Q48.18 31.87 47.65 31.41L47.65 31.41Q47.43 31.21 47.17 31.05Q47.07 30.99 46.97 30.94Q46.17 30.51 45.14 30.51Q44.12 30.51 43.32 30.94Q43.22 30.99 43.12 31.05Q42.84 31.22 42.61 31.43Q42.1 31.89 41.78 32.55Q41.3 33.5 41.3 34.76L41.3 37.96ZM47.05 33.2Q47.53 33.85 47.53 34.85L47.53 36.47L42.76 36.47L42.76 36.17L42.76 34.85Q42.76 33.87 43.22 33.23L43.22 33.23Q43.31 33.11 43.41 33.01Q43.58 32.82 43.78 32.69L43.78 32.69Q44.34 32.32 45.14 32.32Q45.94 32.32 46.5 32.68L46.5 32.68Q46.72 32.82 46.89 33.01Q46.98 33.1 47.05 33.2L47.05 33.2ZM43.06 36.17L43.06 34.85Q43.06 33.94 43.5 33.37Q43.56 33.29 43.63 33.21Q43.76 33.07 43.91 32.96Q44.4 32.62 45.14 32.62Q45.88 32.62 46.38 32.96Q46.54 33.07 46.67 33.21L46.67 33.21Q46.73 33.27 46.78 33.33Q47.23 33.91 47.23 34.85L47.23 36.17L43.06 36.17Z" fill="#FFFFFF" fill-opacity="1.000000" fill-rule="evenodd"/>
	<path d="M95.41 29.08Q96.83 29.52 97.77 30.46Q98.02 30.71 98.24 31C98.91 31.88 99.26 32.97 99.26 34.27Q99.26 35.8 98.59 36.95Q98.05 37.86 97.1 38.53C95.67 39.5 93.6 40 90.86 40L80 40L80 19L90.26 19Q94.1 19 96.13 20.46Q97.19 21.21 97.71 22.23Q98.21 23.22 98.21 24.46Q98.21 25.61 97.78 26.57Q97.64 26.89 97.46 27.19Q97.25 27.53 96.99 27.84Q96.35 28.59 95.41 29.08ZM119.19 36.09L119.19 40L102.93 40L102.93 19L118.81 19L118.81 22.9L107.77 22.9L107.77 27.46L117.52 27.46L117.52 31.24L107.77 31.24L107.77 36.09L119.19 36.09ZM120.69 22.96L127.41 22.96L127.41 40L132.27 40L132.27 22.96L138.99 22.96L138.99 19L120.69 19L120.69 22.96ZM84.83 22.66L84.83 27.61L89.65 27.61C90.86 27.61 91.77 27.4 92.38 26.98Q92.75 26.72 92.98 26.38Q93.32 25.86 93.32 25.12Q93.32 24.36 92.96 23.84Q92.74 23.52 92.38 23.29Q91.46 22.66 89.65 22.66L84.83 22.66ZM90.5 36.34Q92.41 36.34 93.37 35.71C94.04 35.29 94.37 34.64 94.37 33.75Q94.37 32.94 93.99 32.38Q93.16 31.15 90.5 31.15L84.83 31.15L84.83 36.34L90.5 36.34Z" fill="#FFFFFF" fill-opacity="1.000000" fill-rule="evenodd"/>
	<path d="M190.08 39.7C191.64 40.14 193.25 40.36 194.91 40.36Q197.79 40.36 199.8 39.49C201.14 38.91 202.14 38.13 202.8 37.15C203.48 36.15 203.82 35.05 203.82 33.84C203.82 32.45 203.45 31.34 202.71 30.52C201.99 29.7 201.12 29.1 200.1 28.72C199.08 28.34 197.77 27.96 196.17 27.58C194.63 27.24 193.48 26.9 192.72 26.56C191.98 26.2 191.61 25.66 191.61 24.94Q191.61 24.49 191.78 24.11Q192.01 23.58 192.57 23.2C193.23 22.76 194.24 22.54 195.6 22.54C197.54 22.54 199.48 23.09 201.42 24.19L202.92 20.5C201.96 19.9 200.84 19.44 199.56 19.12C198.28 18.79 196.97 18.64 195.63 18.64Q192.75 18.64 190.74 19.51C189.42 20.09 188.43 20.88 187.77 21.88C187.11 22.86 186.78 23.96 186.78 25.18Q186.78 27.15 187.74 28.39Q187.8 28.46 187.86 28.54C188.6 29.38 189.48 29.99 190.5 30.37C191.52 30.75 192.83 31.13 194.43 31.51C195.47 31.75 196.29 31.97 196.89 32.16C197.51 32.37 198.01 32.64 198.39 32.98C198.79 33.3 198.99 33.71 198.99 34.21C198.99 34.89 198.66 35.43 198 35.86C197.34 36.25 196.32 36.46 194.94 36.46C193.7 36.46 192.46 36.25 191.22 35.86C189.98 35.46 188.91 34.93 188.01 34.27L186.36 37.93C187.3 38.65 188.54 39.24 190.08 39.7ZM162.67 19L153.59 40L148.78 40L139.73 19L144.98 19L151.37 34L157.85 19L162.67 19ZM163.83 19L173.37 19Q176.79 19 179.4 20.32C181.16 21.18 182.52 22.4 183.48 23.98C184.46 25.56 184.95 27.4 184.95 29.5C184.95 31.6 184.46 33.43 183.48 35.02C182.52 36.59 181.16 37.83 179.4 38.71Q176.79 40 173.37 40L163.83 40L163.83 19ZM173.13 36C175.23 36 176.9 35.43 178.14 34.27C179.4 33.09 180.03 31.5 180.03 29.5C180.03 27.5 179.4 25.92 178.14 24.76C176.9 23.58 175.23 22.99 173.13 22.99L168.69 22.99L168.69 36L173.13 36Z" fill="#FE9E45" fill-opacity="1.000000" fill-rule="evenodd"/>
</svg>
